<?xml version="1.0" encoding="UTF-8"?>
<!--
Original SVG:
Copyright (C) 2009–2011 Ulrich Apel (KanjiVG)
Licensed under CC BY-SA 3.0
http://kanjivg.tagaini.net
-->

<!--
Animations & interactive behavior:
Copyright (C) 2025 Naufal Aditya Yahya
Licensed under CC BY-SA 3.0
https://naufaladityayahya.me or https://github.com/soudayonee
-->
<!DOCTYPE svg PUBLIC "-//W3C//DTD SVG 1.0//EN" "http://www.w3.org/TR/2001/REC-SVG-20010904/DTD/svg10.dtd" [ <!ATTLIST g
  xmlns:kvg CDATA #FIXED "http://kanjivg.tagaini.net" kvg:element CDATA #IMPLIED kvg:variant CDATA #IMPLIED kvg:partial
  CDATA #IMPLIED kvg:original CDATA #IMPLIED kvg:part CDATA #IMPLIED kvg:number CDATA #IMPLIED kvg:tradForm CDATA
  #IMPLIED kvg:radicalForm CDATA #IMPLIED kvg:position CDATA #IMPLIED kvg:radical CDATA #IMPLIED kvg:phon CDATA
  #IMPLIED>
<!ATTLIST path xmlns:kvg CDATA #FIXED "http://kanjivg.tagaini.net" kvg:type CDATA #IMPLIED>
  ]>
  <svg xmlns="http://www.w3.org/2000/svg" width="109" height="109" viewBox="0 0 109 109">
    <g id="kvg:StrokePaths_030c0"
      style="fill:none;stroke:#000000;stroke-width:3;stroke-linecap:round;stroke-linejoin:round;">
      <g id="kvg:030c0" kvg:element="ダ">
        <path id="kvg:030c0-s1" d="M48.83,19.75c0.43,1.72,0.39,4-0.58,5.89c-4.77,9.34-9.1,17.82-18.63,27.73"
          stroke="black" fill="transparent" stroke-width="3" stroke-dasharray="1000" stroke-dashoffset="1000">
          <animate attributeName="stroke-dashoffset" from="1000" to="0" dur="10s" begin="0s" fill="freeze" />
        </path>
        <path id="kvg:030c0-s2"
          d="M49.75,30.38c2.5,0.62,5.67-0.14,7.62-0.62c6-1.5,10.5-2.62,15.88-4.12c5.79-1.62,8.22,0.31,5.88,5.62c-10.88,24.62-22.13,43.99-50.13,59.99"
          stroke="black" fill="transparent" stroke-width="3" stroke-dasharray="1000" stroke-dashoffset="1000">
          <animate attributeName="stroke-dashoffset" from="1000" to="0" dur="10s" begin="0.8s" fill="freeze" />
        </path>
        <path id="kvg:030c0-s3" d="M43.38,45.62c6.75,3.5,10.62,7.88,14.75,15.25" stroke="black" fill="transparent"
          stroke-width="3" stroke-dasharray="1000" stroke-dashoffset="1000">
          <animate attributeName="stroke-dashoffset" from="1000" to="0" dur="10s" begin="1.6s" fill="freeze" />
        </path>
        <path id="kvg:030c0-s4" d="M83.62,14.19c2.95,1.81,6.43,5.57,8.3,8.81" stroke="black" fill="transparent"
          stroke-width="3" stroke-dasharray="1000" stroke-dashoffset="1000">
          <animate attributeName="stroke-dashoffset" from="1000" to="0" dur="10s" begin="2.4s" fill="freeze" />
        </path>
        <path id="kvg:030c0-s5" d="M90.12,9.38c3.02,1.63,6.58,5,8.5,7.9" stroke="black" fill="transparent"
          stroke-width="3" stroke-dasharray="1000" stroke-dashoffset="1000">
          <animate attributeName="stroke-dashoffset" from="1000" to="0" dur="10s" begin="3.2s" fill="freeze" />
        </path>
      </g>
    </g>
    <g id="kvg:StrokeNumbers_030c0" style="font-size:8;fill:#BC002D;">
      <text transform="matrix(1 0 0 1 41.38 17.25)">1</text>
      <text transform="matrix(1 0 0 1 54.75 26)">2</text>
      <text transform="matrix(1 0 0 1 45.13 43.5)">3</text>
      <text transform="matrix(1 0 0 1 76.5 13)">4</text>
      <text transform="matrix(1 0 0 1 82.63 8.13)">5</text>
    </g>
  </svg>