<?xml version="1.0" encoding="UTF-8"?>
<!--
Original SVG:
Copyright (C) 2009–2011 Ulrich Apel (KanjiVG)
Licensed under CC BY-SA 3.0
http://kanjivg.tagaini.net
-->

<!--
Animations & interactive behavior:
Copyright (C) 2025 Naufal Aditya Yahya
Licensed under CC BY-SA 3.0
https://naufaladityayahya.me or https://github.com/soudayonee
-->

<!DOCTYPE svg PUBLIC "-//W3C//DTD SVG 1.0//EN" "http://www.w3.org/TR/2001/REC-SVG-20010904/DTD/svg10.dtd" [ <!ATTLIST g
  xmlns:kvg CDATA #FIXED "http://kanjivg.tagaini.net" kvg:element CDATA #IMPLIED kvg:variant CDATA #IMPLIED kvg:partial
  CDATA #IMPLIED kvg:original CDATA #IMPLIED kvg:part CDATA #IMPLIED kvg:number CDATA #IMPLIED kvg:tradForm CDATA
  #IMPLIED kvg:radicalForm CDATA #IMPLIED kvg:position CDATA #IMPLIED kvg:radical CDATA #IMPLIED kvg:phon CDATA
  #IMPLIED>
<!ATTLIST path xmlns:kvg CDATA #FIXED "http://kanjivg.tagaini.net" kvg:type CDATA #IMPLIED>
  ]>
  <svg xmlns="http://www.w3.org/2000/svg" width="109" height="109" viewBox="0 0 109 109">
    <g id="kvg:StrokePaths_030ac"
      style="fill:none;stroke:#000000;stroke-width:3;stroke-linecap:round;stroke-linejoin:round;">
      <g id="kvg:030ac" kvg:element="ガ">
        <path id="kvg:030ac-s1"
          d="M25.5,40.62c1.88,1.25,4.51,1.87,7.12,1.5c17.88-2.5,32.78-4.51,42.5-5.88c7.12-1,10.59,0.24,8.62,7.88c-2.12,8.25-4.47,17.81-9.25,29.12c-10.49,24.88-14.11,14.51-19.24,11.88"
          stroke="black" fill="transparent" stroke-width="3" stroke-dasharray="1000" stroke-dashoffset="1000">
          <animate attributeName="stroke-dashoffset" from="1000" to="0" dur="10s" begin="0s" fill="freeze" />
        </path>
        <path id="kvg:030ac-s2" d="M55.88,17.12c0.88,1.62,1.29,3.83,0.75,6.75c-4.25,22.88-15.88,45.25-30.25,58.88"
          stroke="black" fill="transparent" stroke-width="3" stroke-dasharray="1000" stroke-dashoffset="1000">
          <animate attributeName="stroke-dashoffset" from="1000" to="0" dur="10s" begin="0.8s" fill="freeze" />
        </path>
        <path id="kvg:030ac-s3" d="M83,19.75c2.75,1.75,6,5.38,7.75,8.5" stroke="black" fill="transparent"
          stroke-width="3" stroke-dasharray="1000" stroke-dashoffset="1000">
          <animate attributeName="stroke-dashoffset" from="1000" to="0" dur="10s" begin="1.6s" fill="freeze" />
        </path>
        <path id="kvg:030ac-s4" d="M89.38,14.88c3.06,1.57,6.68,4.82,8.62,7.62" stroke="black" fill="transparent"
          stroke-width="3" stroke-dasharray="1000" stroke-dashoffset="1000">
          <animate attributeName="stroke-dashoffset" from="1000" to="0" dur="10s" begin="2.4s" fill="freeze" />
        </path>
      </g>
    </g>
    <g id="kvg:StrokeNumbers_030ac" style="font-size:8;fill:#BC002D;">
      <text transform="matrix(1 0 0 1 18.13 41.13)">1</text>
      <text transform="matrix(1 0 0 1 46.25 17.25)">2</text>
      <text transform="matrix(1 0 0 1 75.38 18.75)">3</text>
      <text transform="matrix(1 0 0 1 81.5 13.63)">4</text>
    </g>
  </svg>