<?xml version="1.0" encoding="UTF-8"?>
<!--
Original SVG:
Copyright (C) 2009–2011 Ulrich Apel (KanjiVG)
Licensed under CC BY-SA 3.0
http://kanjivg.tagaini.net
-->

<!--
Animations & interactive behavior:
Copyright (C) 2025 Naufal Aditya Yahya
Licensed under CC BY-SA 3.0
https://naufaladityayahya.me or https://github.com/soudayonee
-->

<!DOCTYPE svg PUBLIC "-//W3C//DTD SVG 1.0//EN" "http://www.w3.org/TR/2001/REC-SVG-20010904/DTD/svg10.dtd" [
<!ATTLIST g
xmlns:kvg CDATA #FIXED "http://kanjivg.tagaini.net"
kvg:element CDATA #IMPLIED
kvg:variant CDATA #IMPLIED
kvg:partial CDATA #IMPLIED
kvg:original CDATA #IMPLIED
kvg:part CDATA #IMPLIED
kvg:number CDATA #IMPLIED
kvg:tradForm CDATA #IMPLIED
kvg:radicalForm CDATA #IMPLIED
kvg:position CDATA #IMPLIED
kvg:radical CDATA #IMPLIED
kvg:phon CDATA #IMPLIED >
<!ATTLIST path
xmlns:kvg CDATA #FIXED "http://kanjivg.tagaini.net"
kvg:type CDATA #IMPLIED >
]>
<svg xmlns="http://www.w3.org/2000/svg" width="109" height="109" viewBox="0 0 109 109">
<g id="kvg:StrokePaths_030b3" style="fill:none;stroke:#000000;stroke-width:3;stroke-linecap:round;stroke-linejoin:round;">
<g id="kvg:030b3" kvg:element="コ">
	<path id="kvg:030b3-s1" d="M30.13,35c1.75,1,3.01,2.18,6.5,1.62c14.25-2.25,29.62-4.25,37.38-5.5c9.37-1.51,9.88,0.25,8,7.5c-2.77,10.71-5.25,22.12-7,34.88" stroke="black" fill="transparent" stroke-width="3" stroke-dasharray="1000" stroke-dashoffset="1000">
    <animate attributeName="stroke-dashoffset" from="1000" to="0" dur="10s" begin="0s" fill="freeze" />
  </path>
	<path id="kvg:030b3-s2" d="M27.5,77.38c2.62,1.12,4.38,1.51,8.25,1c11.38-1.5,22.62-3,33.75-3.38c4-0.13,5.88,0,9.62,0.5" stroke="black" fill="transparent" stroke-width="3" stroke-dasharray="1000" stroke-dashoffset="1000">
    <animate attributeName="stroke-dashoffset" from="1000" to="0" dur="10s" begin="0.8s" fill="freeze" />
  </path>
</g>
</g>
<g id="kvg:StrokeNumbers_030b3" style="font-size:8;fill:#BC002D;">
	<text transform="matrix(1 0 0 1 22.88 32)">1</text>
	<text transform="matrix(1 0 0 1 23.88 72.88)">2</text>
</g>
</svg>










