<?xml version="1.0" encoding="UTF-8"?>
<!--
Original SVG:
Copyright (C) 2009–2011 Ulrich Apel (KanjiVG)
Licensed under CC BY-SA 3.0
http://kanjivg.tagaini.net
-->

<!--
Animations & interactive behavior:
Copyright (C) 2025 Naufal Aditya Yahya
Licensed under CC BY-SA 3.0
https://naufaladityayahya.me or https://github.com/soudayonee
-->

<!DOCTYPE svg PUBLIC "-//W3C//DTD SVG 1.0//EN" "http://www.w3.org/TR/2001/REC-SVG-20010904/DTD/svg10.dtd" [ <!ATTLIST g
  xmlns:kvg CDATA #FIXED "http://kanjivg.tagaini.net" kvg:element CDATA #IMPLIED kvg:variant CDATA #IMPLIED kvg:partial
  CDATA #IMPLIED kvg:original CDATA #IMPLIED kvg:part CDATA #IMPLIED kvg:number CDATA #IMPLIED kvg:tradForm CDATA
  #IMPLIED kvg:radicalForm CDATA #IMPLIED kvg:position CDATA #IMPLIED kvg:radical CDATA #IMPLIED kvg:phon CDATA
  #IMPLIED>
<!ATTLIST path xmlns:kvg CDATA #FIXED "http://kanjivg.tagaini.net" kvg:type CDATA #IMPLIED>
  ]>
  <svg xmlns="http://www.w3.org/2000/svg" width="109" height="109" viewBox="0 0 169 169">
    <g id="kvg:StrokePaths_030cb"
      style="fill:none;stroke:#000000;stroke-width:3;stroke-linecap:round;stroke-linejoin:round;">
      <g id="kvg:030cb" kvg:element="ニ">
        <path id="kvg:030cb-s1"
          d="M32.63,34.69c2.5,1.19,4.33,1.6,7.45,1.35c11.55-0.91,18.3-2.41,27.04-3.18c2.64-0.23,6.27-0.16,8.39,0.08"
          stroke="black" fill="transparent" stroke-width="3" stroke-dasharray="1000" stroke-dashoffset="1000">
          <animate attributeName="stroke-dashoffset" from="1000" to="0" dur="10s" begin="0s" fill="freeze" />
        </path>
        <path id="kvg:030cb-s2"
          d="M20,74.88c2.62,1,4.78,1.45,9.12,0.75c20.25-3.25,36.5-3.88,52.38-3.88c3.75,0,8,1,11.12,2.38" stroke="black"
          fill="transparent" stroke-width="3" stroke-dasharray="1000" stroke-dashoffset="1000">
          <animate attributeName="stroke-dashoffset" from="1000" to="0" dur="10s" begin="0.8s" fill="freeze" />
        </path>
      </g>
    </g>
    <g id="kvg:StrokeNumbers_030cb" style="font-size:8;fill:#BC002D;">
      <text transform="matrix(1 0 0 1 26.01 33.13)">1</text>
      <text transform="matrix(1 0 0 1 15.76 68.5)">2</text>
    </g>
    <g id="kvg:StrokePaths_030e7"
      style="fill:none;stroke:#000000;stroke-width:3;stroke-linecap:round;stroke-linejoin:round;transform:translateX(80px);">
      <g id="kvg:030e7" kvg:element="ョ">
        <path id="kvg:030e7-s1"
          d="M33.5,50.62c1.9,1.21,4.09,1.6,7.39,1.21c11.19-1.32,21.35-2.46,29.07-3.44c4.79-0.61,5.49,0.4,5.2,5.16c-0.79,12.56-1.5,24.79-2.4,34.21"
          stroke="black" fill="transparent" stroke-width="3" stroke-dasharray="1000" stroke-dashoffset="1000">
          <animate attributeName="stroke-dashoffset" from="1000" to="0" dur="10s" begin="1.6s" fill="freeze" />
        </path>
        <path id="kvg:030e7-s2"
          d="M33.6,69.04c1.9,1.21,4.09,1.6,7.39,1.21c8.39-0.99,18.23-1.85,24.86-2.47c2.21-0.2,4.21,0.04,6.21,0.44"
          stroke="black" fill="transparent" stroke-width="3" stroke-dasharray="1000" stroke-dashoffset="1000">
          <animate attributeName="stroke-dashoffset" from="1000" to="0" dur="10s" begin="2.4s" fill="freeze" />
        </path>
        <path id="kvg:030e7-s3"
          d="M29,90.06c2.2,1.05,3.79,1.36,7.29,1.05c9.99-0.88,23.47-2.35,33.07-2.35c2.7,0,4.49,0,7.49,0.44"
          stroke="black" fill="transparent" stroke-width="3" stroke-dasharray="1000" stroke-dashoffset="1000">
          <animate attributeName="stroke-dashoffset" from="1000" to="0" dur="10s" begin="3.2s" fill="freeze" />
        </path>
      </g>
    </g>
    <g id="kvg:StrokeNumbers_030e7" style="font-size:8;fill:#BC002D;transform:translateX(80px);">
      <text transform="matrix(1 0 0 1 27.63 50.5)">3</text>
      <text transform="matrix(1 0 0 1 26.5 69.25)">4</text>
      <text transform="matrix(1 0 0 1 24 86.5)">5</text>
    </g>
  </svg>