<?xml version="1.0" encoding="UTF-8"?>
<!--
Original SVG:
Copyright (C) 2009–2011 Ulrich Apel (KanjiVG)
Licensed under CC BY-SA 3.0
http://kanjivg.tagaini.net
-->

<!--
Animations & interactive behavior:
Copyright (C) 2025 Naufal Aditya Yahya
Licensed under CC BY-SA 3.0
https://naufaladityayahya.me or https://github.com/soudayonee
-->

<!DOCTYPE svg PUBLIC "-//W3C//DTD SVG 1.0//EN" "http://www.w3.org/TR/2001/REC-SVG-20010904/DTD/svg10.dtd" [
<!ATTLIST g
xmlns:kvg CDATA #FIXED "http://kanjivg.tagaini.net"
kvg:element CDATA #IMPLIED
kvg:variant CDATA #IMPLIED
kvg:partial CDATA #IMPLIED
kvg:original CDATA #IMPLIED
kvg:part CDATA #IMPLIED
kvg:number CDATA #IMPLIED
kvg:tradForm CDATA #IMPLIED
kvg:radicalForm CDATA #IMPLIED
kvg:position CDATA #IMPLIED
kvg:radical CDATA #IMPLIED
kvg:phon CDATA #IMPLIED >
<!ATTLIST path
xmlns:kvg CDATA #FIXED "http://kanjivg.tagaini.net"
kvg:type CDATA #IMPLIED >
]>
<svg xmlns="http://www.w3.org/2000/svg" width="109" height="109" viewBox="0 0 109 109">
<g id="kvg:StrokePaths_030ed" style="fill:none;stroke:#000000;stroke-width:3;stroke-linecap:round;stroke-linejoin:round;">
<g id="kvg:030ed" kvg:element="ロ">
	<path id="kvg:030ed-s1" d="M25,33.25c1.5,1.25,2.16,3.14,2.38,5.38c0.96,10.07,2.14,23.67,3.14,34.88c0.31,3.4,0.59,6.58,0.86,9.38" stroke="black" fill="transparent" stroke-width="3" stroke-dasharray="1000" stroke-dashoffset="1000">
    <animate attributeName="stroke-dashoffset" from="1000" to="0" dur="10s" begin="0s" fill="freeze" />
  </path>
	<path id="kvg:030ed-s2" d="M28.13,36.12c9.25-1,37.62-3.12,45.62-4.25c8-1.13,9.57,0.53,8.38,6.62c-2.13,10.89-4.13,21.89-6.75,34.89" stroke="black" fill="transparent" stroke-width="3" stroke-dasharray="1000" stroke-dashoffset="1000">
    <animate attributeName="stroke-dashoffset" from="1000" to="0" dur="10s" begin="0.8s" fill="freeze" />
  </path>
	<path id="kvg:030ed-s3" d="M32,78.12c5.38-0.5,33.62-3,36.5-3c2.88,0,7.88-0.25,11.5,0.25" stroke="black" fill="transparent" stroke-width="3" stroke-dasharray="1000" stroke-dashoffset="1000">
    <animate attributeName="stroke-dashoffset" from="1000" to="0" dur="10s" begin="1.6s" fill="freeze" />
  </path>
</g>
</g>
<g id="kvg:StrokeNumbers_030ed" style="font-size:8;fill:#BC002D;">
	<text transform="matrix(1 0 0 1 18.38 39.75)">1</text>
	<text transform="matrix(1 0 0 1 30.51 32.25)">2</text>
	<text transform="matrix(1 0 0 1 35.13 73.63)">3</text>
</g>
</svg>










