<?xml version="1.0" encoding="UTF-8"?>
<!--
Original SVG:
Copyright (C) 2009–2011 Ulrich Apel (KanjiVG)
Licensed under CC BY-SA 3.0
http://kanjivg.tagaini.net
-->

<!--
Animations & interactive behavior:
Copyright (C) 2025 Naufal Aditya Yahya
Licensed under CC BY-SA 3.0
https://naufaladityayahya.me or https://github.com/soudayonee
-->

<!DOCTYPE svg PUBLIC "-//W3C//DTD SVG 1.0//EN" "http://www.w3.org/TR/2001/REC-SVG-20010904/DTD/svg10.dtd" [ <!ATTLIST g
  xmlns:kvg CDATA #FIXED "http://kanjivg.tagaini.net" kvg:element CDATA #IMPLIED kvg:variant CDATA #IMPLIED kvg:partial
  CDATA #IMPLIED kvg:original CDATA #IMPLIED kvg:part CDATA #IMPLIED kvg:number CDATA #IMPLIED kvg:tradForm CDATA
  #IMPLIED kvg:radicalForm CDATA #IMPLIED kvg:position CDATA #IMPLIED kvg:radical CDATA #IMPLIED kvg:phon CDATA
  #IMPLIED>
<!ATTLIST path xmlns:kvg CDATA #FIXED "http://kanjivg.tagaini.net" kvg:type CDATA #IMPLIED>
  ]>
  <svg xmlns="http://www.w3.org/2000/svg" width="109" height="109" viewBox="0 0 169 169">
    <g id="kvg:StrokePaths_030ea"
      style="fill:none;stroke:#000000;stroke-width:3;stroke-linecap:round;stroke-linejoin:round;">
      <g id="kvg:030ea" kvg:element="リ">
        <path id="kvg:030ea-s1" d="M35,18.38c1.12,1.5,1.62,3,1.62,4.88c0,1.88,0,25,0,27c0,2,0,6.12,0,7.75"
          stroke="black" fill="transparent" stroke-width="3" stroke-dasharray="1000" stroke-dashoffset="1000">
          <animate attributeName="stroke-dashoffset" from="1000" to="0" dur="10s" begin="0s" fill="freeze" />
        </path>
        <path id="kvg:030ea-s2"
          d="M71,15.38c1.5,1.25,2.38,3.12,2.38,5.38c0,2.26-0.12,28.88-0.12,32.88c0,19.62-9.5,32.25-21.75,40.38"
          stroke="black" fill="transparent" stroke-width="3" stroke-dasharray="1000" stroke-dashoffset="1000">
          <animate attributeName="stroke-dashoffset" from="1000" to="0" dur="10s" begin="0.8s" fill="freeze" />
        </path>
      </g>
    </g>
    <g id="kvg:StrokeNumbers_030ea" style="font-size:8;fill:#BC002D;">
      <text transform="matrix(1 0 0 1 28.62 15.88)">1</text>
      <text transform="matrix(1 0 0 1 62 13.5)">2</text>
    </g>
    <g id="kvg:StrokePaths_030e5"
      style="fill:none;stroke:#000000;stroke-width:3;stroke-linecap:round;stroke-linejoin:round;transform:translateX(80px);">
      <g id="kvg:030e5" kvg:element="ュ">
        <path id="kvg:030e5-s1"
          d="M34.8,52.84c1.91,1.21,4.13,1.67,7.44,1.21c10.65-1.51,13.99-1.68,21.71-2.97c5.43-0.9,6.26,0.13,5.23,5.12c-1.91,9.25-3.92,19.45-5.23,27.49"
          stroke="black" fill="transparent" stroke-width="3" stroke-dasharray="1000" stroke-dashoffset="1000">
          <animate attributeName="stroke-dashoffset" from="1000" to="0" dur="10s" begin="1.6s" fill="freeze" />
        </path>
        <path id="kvg:030e5-s2"
          d="M24.5,86.21c2.21,1.21,3.84,1.73,7.34,1.21c18.54-2.79,28.95-3.12,43.52-3.12c3.02,0,5.93,0.4,8.95,0.9"
          stroke="black" fill="transparent" stroke-width="3" stroke-dasharray="1000" stroke-dashoffset="1000">
          <animate attributeName="stroke-dashoffset" from="1000" to="0" dur="10s" begin="2.4s" fill="freeze" />
        </path>
      </g>
    </g>
    <g id="kvg:StrokeNumbers_030e5" style="font-size:8;fill:#BC002D;transform:translateX(80px);">
      <text transform="matrix(1 0 0 1 29.13 50.5)">3</text>
      <text transform="matrix(1 0 0 1 20.63 81.88)">4</text>
    </g>
  </svg>