<?xml version="1.0" encoding="UTF-8"?>
<!--
Original SVG:
Copyright (C) 2009–2011 Ulrich Apel (KanjiVG)
Licensed under CC BY-SA 3.0
http://kanjivg.tagaini.net
-->

<!--
Animations & interactive behavior:
Copyright (C) 2025 Naufal Aditya Yahya
Licensed under CC BY-SA 3.0
https://naufaladityayahya.me or https://github.com/soudayonee
-->

<!DOCTYPE svg PUBLIC "-//W3C//DTD SVG 1.0//EN" "http://www.w3.org/TR/2001/REC-SVG-20010904/DTD/svg10.dtd" [ <!ATTLIST g
  xmlns:kvg CDATA #FIXED "http://kanjivg.tagaini.net" kvg:element CDATA #IMPLIED kvg:variant CDATA #IMPLIED kvg:partial
  CDATA #IMPLIED kvg:original CDATA #IMPLIED kvg:part CDATA #IMPLIED kvg:number CDATA #IMPLIED kvg:tradForm CDATA
  #IMPLIED kvg:radicalForm CDATA #IMPLIED kvg:position CDATA #IMPLIED kvg:radical CDATA #IMPLIED kvg:phon CDATA
  #IMPLIED>
<!ATTLIST path xmlns:kvg CDATA #FIXED "http://kanjivg.tagaini.net" kvg:type CDATA #IMPLIED>
  ]>
  <svg xmlns="http://www.w3.org/2000/svg" width="109" height="109" viewBox="0 0 169 169">
    <g id="kvg:StrokePaths_030b7"
      style="fill:none;stroke:#000000;stroke-width:3;stroke-linecap:round;stroke-linejoin:round;">
      <g id="kvg:030b7" kvg:element="シ">
        <path id="kvg:030b7-s1" d="M39.87,19.75c5.14,1.57,9.79,6.01,11.5,8.62" stroke="black" fill="transparent"
          stroke-width="3" stroke-dasharray="1000" stroke-dashoffset="1000">
          <animate attributeName="stroke-dashoffset" from="1000" to="0" dur="10s" begin="0s" fill="freeze" />
        </path>
        <path id="kvg:030b7-s2" d="M26,42.62c3.25,0.88,10.25,5.5,12.25,8.13" stroke="black" fill="transparent"
          stroke-width="3" stroke-dasharray="1000" stroke-dashoffset="1000">
          <animate attributeName="stroke-dashoffset" from="1000" to="0" dur="10s" begin="0.8s" fill="freeze" />
        </path>
        <path id="kvg:030b7-s3" d="M33,85c3.75,0.88,7.12,0.49,10.38-1.38c17.87-10.24,32.37-23.87,46.12-42.87"
          stroke="black" fill="transparent" stroke-width="3" stroke-dasharray="1000" stroke-dashoffset="1000">
          <animate attributeName="stroke-dashoffset" from="1000" to="0" dur="10s" begin="1.6s" fill="freeze" />
        </path>
      </g>
    </g>
    <g id="kvg:StrokeNumbers_030b7" style="font-size:8;fill:#BC002D;">
      <text transform="matrix(1 0 0 1 34 19.13)">1</text>
      <text transform="matrix(1 0 0 1 23.38 38.63)">2</text>
      <text transform="matrix(1 0 0 1 27.38 78.63)">3</text>
    </g>
    <g id="kvg:StrokePaths_030e7"
      style="fill:none;stroke:#000000;stroke-width:3;stroke-linecap:round;stroke-linejoin:round;transform:translateX(80px);">
      <g id="kvg:030e7" kvg:element="ョ">
        <path id="kvg:030e7-s1"
          d="M33.5,50.62c1.9,1.21,4.09,1.6,7.39,1.21c11.19-1.32,21.35-2.46,29.07-3.44c4.79-0.61,5.49,0.4,5.2,5.16c-0.79,12.56-1.5,24.79-2.4,34.21"
          stroke="black" fill="transparent" stroke-width="3" stroke-dasharray="1000" stroke-dashoffset="1000">
          <animate attributeName="stroke-dashoffset" from="1000" to="0" dur="10s" begin="2.4s" fill="freeze" />
        </path>
        <path id="kvg:030e7-s2"
          d="M33.6,69.04c1.9,1.21,4.09,1.6,7.39,1.21c8.39-0.99,18.23-1.85,24.86-2.47c2.21-0.2,4.21,0.04,6.21,0.44"
          stroke="black" fill="transparent" stroke-width="3" stroke-dasharray="1000" stroke-dashoffset="1000">
          <animate attributeName="stroke-dashoffset" from="1000" to="0" dur="10s" begin="3.2s" fill="freeze" />
        </path>
        <path id="kvg:030e7-s3"
          d="M29,90.06c2.2,1.05,3.79,1.36,7.29,1.05c9.99-0.88,23.47-2.35,33.07-2.35c2.7,0,4.49,0,7.49,0.44"
          stroke="black" fill="transparent" stroke-width="3" stroke-dasharray="1000" stroke-dashoffset="1000">
          <animate attributeName="stroke-dashoffset" from="1000" to="0" dur="10s" begin="4s" fill="freeze" />
        </path>
      </g>
    </g>
    <g id="kvg:StrokeNumbers_030e7" style="font-size:8;fill:#BC002D;transform:translateX(80px);">
      <text transform="matrix(1 0 0 1 27.63 50.5)">4</text>
      <text transform="matrix(1 0 0 1 26.5 69.25)">5</text>
      <text transform="matrix(1 0 0 1 24 86.5)">6</text>
    </g>
  </svg>