<?xml version="1.0" encoding="UTF-8"?>
<!--
Original SVG:
Copyright (C) 2009–2011 Ulrich Apel (KanjiVG)
Licensed under CC BY-SA 3.0
http://kanjivg.tagaini.net
-->

<!--
Animations & interactive behavior:
Copyright (C) 2025 Naufal Aditya Yahya
Licensed under CC BY-SA 3.0
https://naufaladityayahya.me or https://github.com/soudayonee
-->

<!DOCTYPE svg PUBLIC "-//W3C//DTD SVG 1.0//EN" "http://www.w3.org/TR/2001/REC-SVG-20010904/DTD/svg10.dtd" [
<!ATTLIST g
xmlns:kvg CDATA #FIXED "http://kanjivg.tagaini.net"
kvg:element CDATA #IMPLIED
kvg:variant CDATA #IMPLIED
kvg:partial CDATA #IMPLIED
kvg:original CDATA #IMPLIED
kvg:part CDATA #IMPLIED
kvg:number CDATA #IMPLIED
kvg:tradForm CDATA #IMPLIED
kvg:radicalForm CDATA #IMPLIED
kvg:position CDATA #IMPLIED
kvg:radical CDATA #IMPLIED
kvg:phon CDATA #IMPLIED >
<!ATTLIST path
xmlns:kvg CDATA #FIXED "http://kanjivg.tagaini.net"
kvg:type CDATA #IMPLIED >
]>
<svg xmlns="http://www.w3.org/2000/svg" width="109" height="109" viewBox="0 0 109 109">
<g id="kvg:StrokePaths_030bf" style="fill:none;stroke:#000000;stroke-width:3;stroke-linecap:round;stroke-linejoin:round;">
<g id="kvg:030bf" kvg:element="タ">
	<path id="kvg:030bf-s1" d="M48.83,19.75c0.43,1.72,0.39,4-0.58,5.89c-4.77,9.34-9.1,17.82-18.63,27.73" stroke="black" fill="transparent" stroke-width="3" stroke-dasharray="1000" stroke-dashoffset="1000">
    <animate attributeName="stroke-dashoffset" from="1000" to="0" dur="10s" begin="0s" fill="freeze" />
  </path>
	<path id="kvg:030bf-s2" d="M49.75,30.38c2.75,0.5,5,0,7.62-0.62c6.02-1.43,10.5-2.62,15.88-4.12c5.79-1.62,8.22,0.31,5.88,5.62c-10.88,24.62-22.13,43.99-50.13,59.99" stroke="black" fill="transparent" stroke-width="3" stroke-dasharray="1000" stroke-dashoffset="1000">
    <animate attributeName="stroke-dashoffset" from="1000" to="0" dur="10s" begin="0.8s" fill="freeze" />
  </path>
	<path id="kvg:030bf-s3" d="M43.38,45.62c6.75,3.5,10.62,7.88,14.75,15.25" stroke="black" fill="transparent" stroke-width="3" stroke-dasharray="1000" stroke-dashoffset="1000">
    <animate attributeName="stroke-dashoffset" from="1000" to="0" dur="10s" begin="1.6s" fill="freeze" />
  </path>
</g>
</g>
<g id="kvg:StrokeNumbers_030bf" style="font-size:8;fill:#BC002D;">
	<text transform="matrix(1 0 0 1 41.38 17.25)">1</text>
	<text transform="matrix(1 0 0 1 54.75 26)">2</text>
	<text transform="matrix(1 0 0 1 45.13 43.5)">3</text>
</g>
</svg>










