<?xml version="1.0" encoding="UTF-8"?>
<!--
Original SVG:
Copyright (C) 2009–2011 Ulrich Apel (KanjiVG)
Licensed under CC BY-SA 3.0
http://kanjivg.tagaini.net
-->
<!DOCTYPE svg PUBLIC "-//W3C//DTD SVG 1.0//EN" "http://www.w3.org/TR/2001/REC-SVG-20010904/DTD/svg10.dtd" [ <!ATTLIST g
	xmlns:kvg CDATA #FIXED "http://kanjivg.tagaini.net" kvg:element CDATA #IMPLIED kvg:variant CDATA #IMPLIED
	kvg:partial CDATA #IMPLIED kvg:original CDATA #IMPLIED kvg:part CDATA #IMPLIED kvg:number CDATA #IMPLIED
	kvg:tradForm CDATA #IMPLIED kvg:radicalForm CDATA #IMPLIED kvg:position CDATA #IMPLIED kvg:radical CDATA #IMPLIED
	kvg:phon CDATA #IMPLIED>
<!ATTLIST path xmlns:kvg CDATA #FIXED "http://kanjivg.tagaini.net" kvg:type CDATA #IMPLIED>
	]>
	<svg xmlns="http://www.w3.org/2000/svg" width="109" height="109" viewBox="0 0 169 169">
		<g id="kvg:StrokePaths_03073"
			style="fill:none;stroke:#000000;stroke-width:3;stroke-linecap:round;stroke-linejoin:round;">
			<g id="kvg:03073" kvg:element="び">
				<path id="kvg:03073-s1"
					d="M20,25.12c1.25,0.88,3.75,2.25,6.5,1.38c2.75-0.87,7.31-2.38,11.38-4.5c6-3.12,8.42-1.01,4.25,4c-27.13,32.62-23.76,58.5-1.52,62.88c18.07,3.56,37.63-16.38,35.63-56.51c-0.72-14.5-0.17-14.78,4.12-1.75c3.76,11.38,10.26,20.76,16.14,26.5" />
				<path id="kvg:03073-s2" d="M86.5,13.5c2.75,1.75,6,5.38,7.75,8.5" />
				<path id="kvg:03073-s3" d="M92.87,8.62c3.06,1.57,6.68,4.82,8.62,7.62" />
			</g>
		</g>
		<g id="kvg:StrokeNumbers_03073" style="font-size:8;fill:#BC002D">
			<text transform="matrix(1 0 0 1 18.37 17.63)">1</text>
			<text transform="matrix(1 0 0 1 78.87 12.5)">2</text>
			<text transform="matrix(1 0 0 1 85 7.38)">3</text>
		</g>
		<g id="kvg:StrokePaths_03087"
			style="fill:none;stroke:#000000;stroke-width:3;stroke-linecap:round;stroke-linejoin:round;transform:translateX(80px);">
			<g id="kvg:03087" kvg:element="ょ">
				<path id="kvg:03087-s1" d="M57.8,50.06c5.98-1.02,10.95-2.09,14.74-3.25c1.99-0.61,3.8-0.91,4.98-0.91" />
				<path id="kvg:03087-s2"
					d="M54.91,33c1.79,1.69,2.38,3.28,2.29,5.16c-0.6,13.49-0.1,27.68,1.11,42.47c1.5,18.31-27.81,16.56-27.81,9.12c0-9.53,20.92-6.35,28.68-3.27c6.46,2.56,9.18,3.87,14.76,8.23" />
			</g>
		</g>
		<g id="kvg:StrokeNumbers_03087" style="font-size:8;fill:#BC002D;transform:translateX(80px);">
			<text transform="matrix(1 0 0 1 60.63 45.25)">4</text>
			<text transform="matrix(1 0 0 1 46.25 32.75)">5</text>
		</g>
	</svg>