<?xml version="1.0" encoding="UTF-8"?>
<!--
Original SVG:
Copyright (C) 2009–2011 Ulrich Apel (KanjiVG)
Licensed under CC BY-SA 3.0
http://kanjivg.tagaini.net
-->
<!DOCTYPE svg PUBLIC "-//W3C//DTD SVG 1.0//EN" "http://www.w3.org/TR/2001/REC-SVG-20010904/DTD/svg10.dtd" [ <!ATTLIST g
	xmlns:kvg CDATA #FIXED "http://kanjivg.tagaini.net" kvg:element CDATA #IMPLIED kvg:variant CDATA #IMPLIED
	kvg:partial CDATA #IMPLIED kvg:original CDATA #IMPLIED kvg:part CDATA #IMPLIED kvg:number CDATA #IMPLIED
	kvg:tradForm CDATA #IMPLIED kvg:radicalForm CDATA #IMPLIED kvg:position CDATA #IMPLIED kvg:radical CDATA #IMPLIED
	kvg:phon CDATA #IMPLIED>
<!ATTLIST path xmlns:kvg CDATA #FIXED "http://kanjivg.tagaini.net" kvg:type CDATA #IMPLIED>
	]>
	<svg xmlns="http://www.w3.org/2000/svg" width="109" height="109" viewBox="0 0 169 169">
		<g id="kvg:StrokePaths_03062"
			style="fill:none;stroke:#000000;stroke-width:3;stroke-linecap:round;stroke-linejoin:round;">
			<g id="kvg:03062" kvg:element="ぢ">
				<path id="kvg:03062-s1"
					d="M24.5,32.88c1.38,0.62,3.88,1.51,6.38,1.12c6.5-1,18.25-4.12,26.88-6c2.64-0.57,5.38-1.5,7.62-2.38" />
				<path id="kvg:03062-s2"
					d="M45.63,15.88c0.75,1.25,0.71,3.58,0.38,5.25c-3,15-4.25,22.59-8.38,38.62c-3.26,12.63-5.38,11.13,3.62,4.37c8.29-6.21,19.75-9.5,28.5-9.5c8.62,0,14.58,5.88,14.5,14.5c-0.12,13.5-16.5,20.62-29.88,23.25" />
				<path id="kvg:03062-s3" d="M74.63,21.75c2.75,1.75,6,5.38,7.75,8.5" />
				<path id="kvg:03062-s4" d="M81,16.88c3.06,1.57,6.68,4.82,8.62,7.62" />
			</g>
		</g>
		<g id="kvg:StrokeNumbers_03062" style="font-size:8;fill:#BC002D;">
			<text transform="matrix(1 0 0 1 20 29.13)">1</text>
			<text transform="matrix(1 0 0 1 36.75 15.75)">2</text>
			<text transform="matrix(1 0 0 1 67 20.75)">3</text>
			<text transform="matrix(1 0 0 1 73.13 15.63)">4</text>
		</g>
		<g id="kvg:StrokePaths_03085"
			style="fill:none;stroke:#000000;stroke-width:3;stroke-linecap:round;stroke-linejoin:round;transform:translateX(80px);">
			<g id="kvg:03085" kvg:element="ゅ">
				<path id="kvg:03085-s1"
					d="M27.74,40.79c1.1,1.2,1.61,3.3,1.2,5c-2.3,9.4-3.2,17.79-1.7,27.99c2.22,15.08,0.9,3.1,2.6-1.2c7.19-18.19,21.79-27.59,35.49-27.59c13.5,0,17.49,9.1,17.49,16.2c0,21.89-24.69,23.69-34.39,13.4" />
				<path id="kvg:03085-s2"
					d="M57.63,33.89c2.1,1.4,2.53,2.5,2.8,5.7c0.7,8.4,1.12,14.97,1.3,23.49c0.4,19.19-5,25.59-9.9,31.39" />
			</g>
		</g>
		<g id="kvg:StrokeNumbers_03085" style="font-size:8;fill:#BC002D;transform:translateX(80px);">
			<text transform="matrix(1 0 0 1 19.42 39.63)">5</text>
			<text transform="matrix(1 0 0 1 48.8 32.5)">6</text>
		</g>
	</svg>