<?xml version="1.0" encoding="UTF-8"?>
<!--
Original SVG:
Copyright (C) 2009–2011 Ulrich Apel (KanjiVG)
Licensed under CC BY-SA 3.0
http://kanjivg.tagaini.net
-->
<!DOCTYPE svg PUBLIC "-//W3C//DTD SVG 1.0//EN" "http://www.w3.org/TR/2001/REC-SVG-20010904/DTD/svg10.dtd" [ <!ATTLIST g
	xmlns:kvg CDATA #FIXED "http://kanjivg.tagaini.net" kvg:element CDATA #IMPLIED kvg:variant CDATA #IMPLIED
	kvg:partial CDATA #IMPLIED kvg:original CDATA #IMPLIED kvg:part CDATA #IMPLIED kvg:number CDATA #IMPLIED
	kvg:tradForm CDATA #IMPLIED kvg:radicalForm CDATA #IMPLIED kvg:position CDATA #IMPLIED kvg:radical CDATA #IMPLIED
	kvg:phon CDATA #IMPLIED>
<!ATTLIST path xmlns:kvg CDATA #FIXED "http://kanjivg.tagaini.net" kvg:type CDATA #IMPLIED>
	]>
	<svg xmlns="http://www.w3.org/2000/svg" width="109" height="109" viewBox="0 0 169 169">
		<g id="kvg:StrokePaths_03058"
			style="fill:none;stroke:#000000;stroke-width:3;stroke-linecap:round;stroke-linejoin:round;">
			<g id="kvg:03058" kvg:element="じ">
				<path id="kvg:03058-s1"
					d="M39.12,17.25c1.25,3.12,0.93,6.74,0.38,10.25c-2.12,13.5-3,26.5-3,39.12c0,27.38,19.88,30.12,45.5,17.25" />
				<path id="kvg:03058-s2" d="M64.24,27c2.75,1.75,6,5.38,7.75,8.5" />
				<path id="kvg:03058-s3" d="M70.62,22.12c3.06,1.57,6.68,4.82,8.62,7.62" />
			</g>
		</g>
		<g id="kvg:StrokeNumbers_03058" style="font-size:8;fill:#BC002D;">
			<text transform="matrix(1 0 0 1 30.87 13.88)">1</text>
			<text transform="matrix(1 0 0 1 56.62 26)">2</text>
			<text transform="matrix(1 0 0 1 62.75 20.88)">3</text>
		</g>
		<g id="kvg:StrokePaths_03083"
			style="fill:none;stroke:#000000;stroke-width:3;stroke-linecap:round;stroke-linejoin:round;transform:translateX(80px);">
			<g id="kvg:03083" kvg:element="ゃ">
				<path id="kvg:03083-s1"
					d="M26,61.07c1.49,1.29,4.16,1.98,6.84,0.69c14.68-7.03,28.36-15.36,40.32-15.26c7.16,0.11,12.7,3.28,12.63,9.75c0,6.61-8.63,13.15-19.43,14.14" />
				<path id="kvg:03083-s2" d="M49.1,34.5c4.07,0.69,8.25,3.21,9.12,5.25c1.69,3.97-0.79,1.88-2.28,2.08" />
				<path id="kvg:03083-s3"
					d="M35.77,40.99c1.88,1.49,2.35,2.77,2.82,4.67c2.08,8.33,8.82,32.37,11.7,41.39c0.51,1.62,1.49,4.96,2.28,7.44" />
			</g>
		</g>
		<g id="kvg:StrokeNumbers_03083" style="font-size:8;fill:#BC002D;;transform:translateX(80px);">
			<text transform="matrix(1 0 0 1 21.88 57.13)">4</text>
			<text transform="matrix(1 0 0 1 42.25 32.63)">5</text>
			<text transform="matrix(1 0 0 1 27.13 40.63)">6</text>
		</g>
	</svg>