<?xml version="1.0" encoding="UTF-8"?>
<!--
Original SVG:
Copyright (C) 2009–2011 Ulrich Apel (KanjiVG)
Licensed under CC BY-SA 3.0
http://kanjivg.tagaini.net
-->
<!DOCTYPE svg PUBLIC "-//W3C//DTD SVG 1.0//EN" "http://www.w3.org/TR/2001/REC-SVG-20010904/DTD/svg10.dtd" [ <!ATTLIST g
	xmlns:kvg CDATA #FIXED "http://kanjivg.tagaini.net" kvg:element CDATA #IMPLIED kvg:variant CDATA #IMPLIED
	kvg:partial CDATA #IMPLIED kvg:original CDATA #IMPLIED kvg:part CDATA #IMPLIED kvg:number CDATA #IMPLIED
	kvg:tradForm CDATA #IMPLIED kvg:radicalForm CDATA #IMPLIED kvg:position CDATA #IMPLIED kvg:radical CDATA #IMPLIED
	kvg:phon CDATA #IMPLIED>
<!ATTLIST path xmlns:kvg CDATA #FIXED "http://kanjivg.tagaini.net" kvg:type CDATA #IMPLIED>
	]>
	<svg xmlns="http://www.w3.org/2000/svg" width="109" height="109" viewBox="0 0 169 169">
		<g id="kvg:StrokePaths_03074"
			style="fill:none;stroke:#000000;stroke-width:3;stroke-linecap:round;stroke-linejoin:round;">
			<g id="kvg:03074" kvg:element="ぴ">
				<path id="kvg:03074-s1"
					d="M20,25.12c1.25,0.88,3.75,2.25,6.5,1.38c2.75-0.87,7.31-2.38,11.38-4.5c6-3.12,8.42-1.01,4.25,4c-27.13,32.62-23.76,58.5-1.52,62.88c18.07,3.56,37.63-16.38,35.63-56.51c-0.72-14.5-0.17-14.78,4.12-1.75c3.76,11.38,10.26,20.76,16.14,26.5" />
				<path id="kvg:03074-s2" d="M93.87,22.12c-9.62,0-9.25-14.25,0-14.25c9.75,0.01,9.5,14.25,0,14.25" />
			</g>
		</g>
		<g id="kvg:StrokeNumbers_03074" style="font-size:8;fill:#BC002D;">
			<text transform="matrix(1 0 0 1 16.62 20.88)">1</text>
			<text transform="matrix(1 0 0 1 90 32)">2</text>
		</g>
		<g id="kvg:StrokePaths_03083"
			style="fill:none;stroke:#000000;stroke-width:3;stroke-linecap:round;stroke-linejoin:round;transform:translateX(80px);">
			<g id="kvg:03083" kvg:element="ゃ">
				<path id="kvg:03083-s1"
					d="M26,61.07c1.49,1.29,4.16,1.98,6.84,0.69c14.68-7.03,28.36-15.36,40.32-15.26c7.16,0.11,12.7,3.28,12.63,9.75c0,6.61-8.63,13.15-19.43,14.14" />
				<path id="kvg:03083-s2" d="M49.1,34.5c4.07,0.69,8.25,3.21,9.12,5.25c1.69,3.97-0.79,1.88-2.28,2.08" />
				<path id="kvg:03083-s3"
					d="M35.77,40.99c1.88,1.49,2.35,2.77,2.82,4.67c2.08,8.33,8.82,32.37,11.7,41.39c0.51,1.62,1.49,4.96,2.28,7.44" />
			</g>
		</g>
		<g id="kvg:StrokeNumbers_03083" style="font-size:8;fill:#BC002D;;transform:translateX(80px);">
			<text transform="matrix(1 0 0 1 21.88 57.13)">3</text>
			<text transform="matrix(1 0 0 1 42.25 32.63)">4</text>
			<text transform="matrix(1 0 0 1 27.13 40.63)">5</text>
		</g>
	</svg>