<?xml version="1.0" encoding="UTF-8"?>
<!--
Original SVG:
Copyright (C) 2009–2011 Ulrich Apel (KanjiVG)
Licensed under CC BY-SA 3.0
http://kanjivg.tagaini.net
-->

<!--
Animations & interactive behavior:
Copyright (C) 2025 Naufal Aditya Yahya
Licensed under CC BY-SA 3.0
https://naufaladityayahya.me or https://github.com/soudayonee
-->

<!DOCTYPE svg PUBLIC "-//W3C//DTD SVG 1.0//EN" "http://www.w3.org/TR/2001/REC-SVG-20010904/DTD/svg10.dtd" [
<!ATTLIST g
xmlns:kvg CDATA #FIXED "http://kanjivg.tagaini.net"
kvg:element CDATA #IMPLIED
kvg:variant CDATA #IMPLIED
kvg:partial CDATA #IMPLIED
kvg:original CDATA #IMPLIED
kvg:part CDATA #IMPLIED
kvg:number CDATA #IMPLIED
kvg:tradForm CDATA #IMPLIED
kvg:radicalForm CDATA #IMPLIED
kvg:position CDATA #IMPLIED
kvg:radical CDATA #IMPLIED
kvg:phon CDATA #IMPLIED >
<!ATTLIST path
xmlns:kvg CDATA #FIXED "http://kanjivg.tagaini.net"
kvg:type CDATA #IMPLIED >
]>
<svg xmlns="http://www.w3.org/2000/svg" width="109" height="109" viewBox="0 0 169 169">
<g id="kvg:StrokePaths_0304e" style="fill:none;stroke:#000000;stroke-width:3;stroke-linecap:round;stroke-linejoin:round;">
<g id="kvg:0304e" kvg:element="ぎ">
	<path id="kvg:0304e-s1" d="M30.5,30.5c1.88,0.75,4.64,1.06,5.88,0.88c6.75-1,22.25-4.5,26.5-6c2.17-0.76,3.5-1.25,4.88-2.12" stroke="black" fill="transparent" stroke-width="3" stroke-dasharray="1000" stroke-dashoffset="1000">
    <animate attributeName="stroke-dashoffset" from="1000" to="0" dur="10s" begin="0s" fill="freeze" />
  </path>
	<path id="kvg:0304e-s2" d="M36.25,48.95c2.01,0.85,4.97,1.2,6.29,0.99c7.23-1.13,23.82-5.09,28.37-6.79c2.32-0.86,3.75-1.41,5.22-2.4" stroke="black" fill="transparent" stroke-width="3" stroke-dasharray="1000" stroke-dashoffset="1000">
    <animate attributeName="stroke-dashoffset" from="1000" to="0" dur="10s" begin=".5s" fill="freeze" />
  </path>
	<path id="kvg:0304e-s3" d="M42,14.38c1.5,0.88,3.13,2.94,4,5.12c5.5,13.75,16,29.25,26.38,40.75c7.64,8.47,9.12,9.38-6,3.88" stroke="black" fill="transparent" stroke-width="3" stroke-dasharray="1000" stroke-dashoffset="1000">
    <animate attributeName="stroke-dashoffset" from="1000" to="0" dur="10s" begin="1s" fill="freeze" />
  </path>
	<path id="kvg:0304e-s4" d="M33.75,83.5c10.62,9.75,27.25,8.62,38.12,5" stroke="black" fill="transparent" stroke-width="3" stroke-dasharray="1000" stroke-dashoffset="1000">
    <animate attributeName="stroke-dashoffset" from="1000" to="0" dur="10s" begin="1.8s" fill="freeze" />
  </path>
	<path id="kvg:0304e-s5" d="M77.37,19c2.75,1.75,6,5.38,7.75,8.5" stroke="black" fill="transparent" stroke-width="3" stroke-dasharray="1000" stroke-dashoffset="1000">
    <animate attributeName="stroke-dashoffset" from="1000" to="0" dur="10s" begin="2.2s" fill="freeze" />
  </path>
	<path id="kvg:0304e-s6" d="M83.75,14.12c3.06,1.57,6.68,4.82,8.62,7.62" stroke="black" fill="transparent" stroke-width="3" stroke-dasharray="1000" stroke-dashoffset="1000">
    <animate attributeName="stroke-dashoffset" from="1000" to="0" dur="10s" begin="2.5s" fill="freeze" />
  </path>
</g>
</g>
<g id="kvg:StrokeNumbers_0304e" style="font-size:8;fill:#BC002D;">
	<text transform="matrix(1 0 0 1 24.5 29.5)">1</text>
	<text transform="matrix(1 0 0 1 28.13 48.13)">2</text>
	<text transform="matrix(1 0 0 1 32.5 13)">3</text>
	<text transform="matrix(1 0 0 1 24.5 77)">4</text>
	<text transform="matrix(1 0 0 1 69.75 18)">5</text>
	<text transform="matrix(1 0 0 1 75.88 12.88)">6</text>
</g>
<g id="kvg:StrokePaths_03087" style="fill:none;stroke:#000000;stroke-width:3;stroke-linecap:round;stroke-linejoin:round;transform:translateX(80px);">
<g id="kvg:03087" kvg:element="ょ">
	<path id="kvg:03087-s1" d="M57.8,50.06c5.98-1.02,10.95-2.09,14.74-3.25c1.99-0.61,3.8-0.91,4.98-0.91" stroke="black" fill="transparent" stroke-width="3" stroke-dasharray="1000" stroke-dashoffset="1000">
    <animate attributeName="stroke-dashoffset" from="1000" to="0" dur="10s" begin="2.8s" fill="freeze" />
  </path>
	<path id="kvg:03087-s2" d="M54.91,33c1.79,1.69,2.38,3.28,2.29,5.16c-0.6,13.49-0.1,27.68,1.11,42.47c1.5,18.31-27.81,16.56-27.81,9.12c0-9.53,20.92-6.35,28.68-3.27c6.46,2.56,9.18,3.87,14.76,8.23" stroke="black" fill="transparent" stroke-width="3" stroke-dasharray="1000" stroke-dashoffset="1000">
    <animate attributeName="stroke-dashoffset" from="1000" to="0" dur="10s" begin="3.1s" fill="freeze" />
  </path>
</g>
</g>
<g id="kvg:StrokeNumbers_03087" style="font-size:8;fill:#BC002D;transform:translateX(80px);">
	<text transform="matrix(1 0 0 1 60.63 45.25)">7</text>
	<text transform="matrix(1 0 0 1 46.25 32.75)">8</text>
</g>
</svg>
