<?xml version="1.0" encoding="UTF-8"?>
<!--
Original SVG:
Copyright (C) 2009–2011 Ulrich Apel (KanjiVG)
Licensed under CC BY-SA 3.0
http://kanjivg.tagaini.net
-->

<!--
Animations & interactive behavior:
Copyright (C) 2025 Naufal Aditya Yahya
Licensed under CC BY-SA 3.0
https://naufaladityayahya.me or https://github.com/soudayonee
-->

<!DOCTYPE svg PUBLIC "-//W3C//DTD SVG 1.0//EN" "http://www.w3.org/TR/2001/REC-SVG-20010904/DTD/svg10.dtd" [
<!ATTLIST g
xmlns:kvg CDATA #FIXED "http://kanjivg.tagaini.net"
kvg:element CDATA #IMPLIED
kvg:variant CDATA #IMPLIED
kvg:partial CDATA #IMPLIED
kvg:original CDATA #IMPLIED
kvg:part CDATA #IMPLIED
kvg:number CDATA #IMPLIED
kvg:tradForm CDATA #IMPLIED
kvg:radicalForm CDATA #IMPLIED
kvg:position CDATA #IMPLIED
kvg:radical CDATA #IMPLIED
kvg:phon CDATA #IMPLIED >
<!ATTLIST path
xmlns:kvg CDATA #FIXED "http://kanjivg.tagaini.net"
kvg:type CDATA #IMPLIED >
]>
<svg xmlns="http://www.w3.org/2000/svg" width="109" height="109" viewBox="0 0 169 169">
<g id="kvg:StrokePaths_0304e" style="fill:none;stroke:#000000;stroke-width:3;stroke-linecap:round;stroke-linejoin:round;">
<g id="kvg:0304e" kvg:element="ぎ">
	<path id="kvg:0304e-s1" d="M30.5,30.5c1.88,0.75,4.64,1.06,5.88,0.88c6.75-1,22.25-4.5,26.5-6c2.17-0.76,3.5-1.25,4.88-2.12" stroke="black" fill="transparent" stroke-width="3" stroke-dasharray="1000" stroke-dashoffset="1000">
    <animate attributeName="stroke-dashoffset" from="1000" to="0" dur="10s" begin="0s" fill="freeze" />
  </path>
	<path id="kvg:0304e-s2" d="M36.25,48.95c2.01,0.85,4.97,1.2,6.29,0.99c7.23-1.13,23.82-5.09,28.37-6.79c2.32-0.86,3.75-1.41,5.22-2.4" stroke="black" fill="transparent" stroke-width="3" stroke-dasharray="1000" stroke-dashoffset="1000">
    <animate attributeName="stroke-dashoffset" from="1000" to="0" dur="10s" begin=".5s" fill="freeze" />
  </path>
	<path id="kvg:0304e-s3" d="M42,14.38c1.5,0.88,3.13,2.94,4,5.12c5.5,13.75,16,29.25,26.38,40.75c7.64,8.47,9.12,9.38-6,3.88" stroke="black" fill="transparent" stroke-width="3" stroke-dasharray="1000" stroke-dashoffset="1000">
    <animate attributeName="stroke-dashoffset" from="1000" to="0" dur="10s" begin="1s" fill="freeze" />
  </path>
	<path id="kvg:0304e-s4" d="M33.75,83.5c10.62,9.75,27.25,8.62,38.12,5" stroke="black" fill="transparent" stroke-width="3" stroke-dasharray="1000" stroke-dashoffset="1000">
    <animate attributeName="stroke-dashoffset" from="1000" to="0" dur="10s" begin="1.8s" fill="freeze" />
  </path>
	<path id="kvg:0304e-s5" d="M77.37,19c2.75,1.75,6,5.38,7.75,8.5" stroke="black" fill="transparent" stroke-width="3" stroke-dasharray="1000" stroke-dashoffset="1000">
    <animate attributeName="stroke-dashoffset" from="1000" to="0" dur="10s" begin="2.2s" fill="freeze" />
  </path>
	<path id="kvg:0304e-s6" d="M83.75,14.12c3.06,1.57,6.68,4.82,8.62,7.62" stroke="black" fill="transparent" stroke-width="3" stroke-dasharray="1000" stroke-dashoffset="1000">
    <animate attributeName="stroke-dashoffset" from="1000" to="0" dur="10s" begin="2.5s" fill="freeze" />
  </path>
</g>
</g>
<g id="kvg:StrokeNumbers_0304e" style="font-size:8;fill:#BC002D;">
	<text transform="matrix(1 0 0 1 24.5 29.5)">1</text>
	<text transform="matrix(1 0 0 1 28.13 48.13)">2</text>
	<text transform="matrix(1 0 0 1 32.5 13)">3</text>
	<text transform="matrix(1 0 0 1 24.5 77)">4</text>
	<text transform="matrix(1 0 0 1 69.75 18)">5</text>
	<text transform="matrix(1 0 0 1 75.88 12.88)">6</text>
</g>
<g id="kvg:StrokePaths_03085" style="fill:none;stroke:#000000;stroke-width:3;stroke-linecap:round;stroke-linejoin:round;transform:translateX(80px);">
<g id="kvg:03085" kvg:element="ゅ">
<path id="kvg:03085-s1" d="M27.74,40.79c1.1,1.2,1.61,3.3,1.2,5c-2.3,9.4-3.2,17.79-1.7,27.99c2.22,15.08,0.9,3.1,2.6-1.2c7.19-18.19,21.79-27.59,35.49-27.59c13.5,0,17.49,9.1,17.49,16.2c0,21.89-24.69,23.69-34.39,13.4" stroke="black" fill="transparent" stroke-width="3" stroke-dasharray="1000" stroke-dashoffset="1000">
    <animate attributeName="stroke-dashoffset" from="1000" to="0" dur="10s" begin="2.7s" fill="freeze" />
  </path>
<path id="kvg:03085-s2" d="M57.63,33.89c2.1,1.4,2.53,2.5,2.8,5.7c0.7,8.4,1.12,14.97,1.3,23.49c0.4,19.19-5,25.59-9.9,31.39" stroke="black" fill="transparent" stroke-width="3" stroke-dasharray="1000" stroke-dashoffset="1000">
    <animate attributeName="stroke-dashoffset" from="1000" to="0" dur="10s" begin="4.4s" fill="freeze" />
  </path>
</g>
</g>
<g id="kvg:StrokeNumbers_03085" style="font-size:8;fill:#BC002D;transform:translateX(80px);">
<text transform="matrix(1 0 0 1 19.42 39.63)">7</text>
<text transform="matrix(1 0 0 1 48.8 32.5)">8</text>
</g>
</svg>
