<?xml version="1.0" encoding="UTF-8"?>
<!--
Original SVG:
Copyright (C) 2009–2011 Ulrich Apel (KanjiVG)
Licensed under CC BY-SA 3.0
http://kanjivg.tagaini.net
-->

<!--
Animations & interactive behavior:
Copyright (C) 2025 Naufal Aditya Yahya
Licensed under CC BY-SA 3.0
https://naufaladityayahya.me or https://github.com/soudayonee
-->

<!DOCTYPE svg PUBLIC "-//W3C//DTD SVG 1.0//EN" "http://www.w3.org/TR/2001/REC-SVG-20010904/DTD/svg10.dtd" [
<!ATTLIST g
xmlns:kvg CDATA #FIXED "http://kanjivg.tagaini.net"
kvg:element CDATA #IMPLIED
kvg:variant CDATA #IMPLIED
kvg:partial CDATA #IMPLIED
kvg:original CDATA #IMPLIED
kvg:part CDATA #IMPLIED
kvg:number CDATA #IMPLIED
kvg:tradForm CDATA #IMPLIED
kvg:radicalForm CDATA #IMPLIED
kvg:position CDATA #IMPLIED
kvg:radical CDATA #IMPLIED
kvg:phon CDATA #IMPLIED >
<!ATTLIST path
xmlns:kvg CDATA #FIXED "http://kanjivg.tagaini.net"
kvg:type CDATA #IMPLIED >
]>
<svg xmlns="http://www.w3.org/2000/svg" width="109" height="109" viewBox="0 0 109 109">
<g id="kvg:StrokePaths_03081" style="fill:none;stroke:#000000;stroke-width:3;stroke-linecap:round;stroke-linejoin:round;">
<g id="kvg:03081" kvg:element="め">
	<path id="kvg:03081-s1" d="M27.48,31.75c1.75,1,2.41,3.09,2.5,5.25c0.5,11.62,2.75,23.5,7.25,31.38c1.39,2.44,5.38,8.5,7.25,10.38" stroke="black" fill="transparent" stroke-width="3" stroke-dasharray="1000" stroke-dashoffset="1000">
    <animate attributeName="stroke-dashoffset" from="1000" to="0" dur="10s" begin="0s" fill="freeze" />
  </path>
	<path id="kvg:03081-s2" d="M59.6,19.38c1,1.5,1.35,4.12,0.88,6.62c-2.75,14.62-13.62,37.75-20.1,47.24c-12.28,17.14-16.78,13.14-22.28,0.64c-5.38-15.38,26.4-42.18,53.42-35.28c29.08,8.27,23.96,46.02-7.98,50.15" stroke="black" fill="transparent" stroke-width="3" stroke-dasharray="1000" stroke-dashoffset="1000">
    <animate attributeName="stroke-dashoffset" from="1000" to="0" dur="10s" begin=".5s" fill="freeze" />
  </path>
</g>
</g>
<g id="kvg:StrokeNumbers_03081" style="font-size:8;fill:#BC002D;">
	<text transform="matrix(1 0 0 1 20.1 30)">1</text>
	<text transform="matrix(1 0 0 1 50.1 18)">2</text>
</g>
</svg>
