<?xml version="1.0" encoding="UTF-8"?>
<!--
Original SVG:
Copyright (C) 2009–2011 Ulrich Apel (KanjiVG)
Licensed under CC BY-SA 3.0
http://kanjivg.tagaini.net
-->

<!--
Animations & interactive behavior:
Copyright (C) 2025 Naufal Aditya Yahya
Licensed under CC BY-SA 3.0
https://naufaladityayahya.me or https://github.com/soudayonee
-->

<!DOCTYPE svg PUBLIC "-//W3C//DTD SVG 1.0//EN" "http://www.w3.org/TR/2001/REC-SVG-20010904/DTD/svg10.dtd" [
<!ATTLIST g
xmlns:kvg CDATA #FIXED "http://kanjivg.tagaini.net"
kvg:element CDATA #IMPLIED
kvg:variant CDATA #IMPLIED
kvg:partial CDATA #IMPLIED
kvg:original CDATA #IMPLIED
kvg:part CDATA #IMPLIED
kvg:number CDATA #IMPLIED
kvg:tradForm CDATA #IMPLIED
kvg:radicalForm CDATA #IMPLIED
kvg:position CDATA #IMPLIED
kvg:radical CDATA #IMPLIED
kvg:phon CDATA #IMPLIED >
<!ATTLIST path
xmlns:kvg CDATA #FIXED "http://kanjivg.tagaini.net"
kvg:type CDATA #IMPLIED >
]>
<svg xmlns="http://www.w3.org/2000/svg" width="109" height="109" viewBox="0 0 109 109">
<g id="kvg:StrokePaths_03082" style="fill:none;stroke:#000000;stroke-width:3;stroke-linecap:round;stroke-linejoin:round;">
<g id="kvg:03082" kvg:element="も">
	<path id="kvg:03082-s1" d="M49.17,14.75c1.88,1.88,1.86,4.52,1.12,8c-3,14.25-5,26.62-7,42.12c-2.55,19.73-0.75,29.88,17,29.86c20.25-0.02,28.63-13.11,20.01-35.73" stroke="black" fill="transparent" stroke-width="3" stroke-dasharray="1000" stroke-dashoffset="1000">
    <animate attributeName="stroke-dashoffset" from="1000" to="0" dur="10s" begin="0s" fill="freeze" />
  </path>
	<path id="kvg:03082-s2" d="M26.54,34.62c1.12,0.88,2.87,2.21,6,2c11.12-0.75,20-2.12,27.74-3.46c3.88-0.67,5.88-1.17,8.88-1.04" stroke="black" fill="transparent" stroke-width="3" stroke-dasharray="1000" stroke-dashoffset="1000">
    <animate attributeName="stroke-dashoffset" from="1000" to="0" dur="10s" begin="1.5s" fill="freeze" />
  </path>
	<path id="kvg:03082-s3" d="M26.42,53.38c-1.5,4,1,6.75,7.75,6.75c8.75,0,17.62-1,22.88-1.88c2.01-0.33,5.38-1,7.5-1.75" stroke="black" fill="transparent" stroke-width="3" stroke-dasharray="1000" stroke-dashoffset="1000">
    <animate attributeName="stroke-dashoffset" from="1000" to="0" dur="10s" begin="2s" fill="freeze" />
  </path>
</g>
</g>
<g id="kvg:StrokeNumbers_03082" style="font-size:8;fill:#BC002D;">
	<text transform="matrix(1 0 0 1 40.55 14.38)">1</text>
	<text transform="matrix(1 0 0 1 21.3 29.63)">2</text>
	<text transform="matrix(1 0 0 1 21.8 50.88)">3</text>
</g>
</svg>
