<?xml version="1.0" encoding="UTF-8"?>
<!--
Original SVG:
Copyright (C) 2009–2011 Ulrich Apel (KanjiVG)
Licensed under CC BY-SA 3.0
http://kanjivg.tagaini.net
-->

<!--
Animations & interactive behavior:
Copyright (C) 2025 Naufal Aditya Yahya
Licensed under CC BY-SA 3.0
https://naufaladityayahya.me or https://github.com/soudayonee
-->

<!DOCTYPE svg PUBLIC "-//W3C//DTD SVG 1.0//EN" "http://www.w3.org/TR/2001/REC-SVG-20010904/DTD/svg10.dtd" [
<!ATTLIST g
xmlns:kvg CDATA #FIXED "http://kanjivg.tagaini.net"
kvg:element CDATA #IMPLIED
kvg:variant CDATA #IMPLIED
kvg:partial CDATA #IMPLIED
kvg:original CDATA #IMPLIED
kvg:part CDATA #IMPLIED
kvg:number CDATA #IMPLIED
kvg:tradForm CDATA #IMPLIED
kvg:radicalForm CDATA #IMPLIED
kvg:position CDATA #IMPLIED
kvg:radical CDATA #IMPLIED
kvg:phon CDATA #IMPLIED >
<!ATTLIST path
xmlns:kvg CDATA #FIXED "http://kanjivg.tagaini.net"
kvg:type CDATA #IMPLIED >
]>
<svg xmlns="http://www.w3.org/2000/svg" width="109" height="109" viewBox="0 0 169 169">
<g id="kvg:StrokePaths_0307f" style="fill:none;stroke:#000000;stroke-width:3;stroke-linecap:round;stroke-linejoin:round;">
<g id="kvg:0307f" kvg:element="み">
	<path id="kvg:0307f-s1" d="M32.5,26c1.88,1.75,4.06,1.7,6.88,1.25c3.88-0.62,7.62-1.75,11.88-3.12c4.26-1.37,6.25-0.12,4.5,5.12c-1.75,5.24-6.66,17.39-12,30.12c-13.63,32.51-29.26,29.26-29.26,18.63c0-14.25,20.48-15.36,33-13.5c18.5,2.75,30,6.62,44.38,14.25" stroke="black" fill="transparent" stroke-width="3" stroke-dasharray="1000" stroke-dashoffset="1000">
    <animate attributeName="stroke-dashoffset" from="1000" to="0" dur="10s" begin="0s" fill="freeze" />
  </path>
	<path id="kvg:0307f-s2" d="M79.38,54.75c0.75,2.38,0.49,4.37,0,6.25c-2.12,8.12-7.5,25-22.12,33.75" stroke="black" fill="transparent" stroke-width="3" stroke-dasharray="1000" stroke-dashoffset="1000">
    <animate attributeName="stroke-dashoffset" from="1000" to="0" dur="10s" begin="2s" fill="freeze" />
  </path>
</g>
</g>
<g id="kvg:StrokeNumbers_0307f" style="font-size:8;fill:#BC002D;">
	<text transform="matrix(1 0 0 1 26.51 24.88)">1</text>
	<text transform="matrix(1 0 0 1 71.13 52)">2</text>
</g>
<g id="kvg:StrokePaths_03083" style="fill:none;stroke:#000000;stroke-width:3;stroke-linecap:round;stroke-linejoin:round;transform:translateX(80px);">
<g id="kvg:03083" kvg:element="ゃ">
	<path id="kvg:03083-s1" d="M26,61.07c1.49,1.29,4.16,1.98,6.84,0.69c14.68-7.03,28.36-15.36,40.32-15.26c7.16,0.11,12.7,3.28,12.63,9.75c0,6.61-8.63,13.15-19.43,14.14" stroke="black" fill="transparent" stroke-width="3" stroke-dasharray="1000" stroke-dashoffset="1000">
    <animate attributeName="stroke-dashoffset" from="1000" to="0" dur="10s" begin="2.5s" fill="freeze" />
  </path>
	<path id="kvg:03083-s2" d="M49.1,34.5c4.07,0.69,8.25,3.21,9.12,5.25c1.69,3.97-0.79,1.88-2.28,2.08" stroke="black" fill="transparent" stroke-width="3" stroke-dasharray="1000" stroke-dashoffset="1000">
    <animate attributeName="stroke-dashoffset" from="1000" to="0" dur="10s" begin="3.5s" fill="freeze" />
  </path>
	<path id="kvg:03083-s3" d="M35.77,40.99c1.88,1.49,2.35,2.77,2.82,4.67c2.08,8.33,8.82,32.37,11.7,41.39c0.51,1.62,1.49,4.96,2.28,7.44" stroke="black" fill="transparent" stroke-width="3" stroke-dasharray="1000" stroke-dashoffset="1000">
    <animate attributeName="stroke-dashoffset" from="1000" to="0" dur="10s" begin="3.8s" fill="freeze" />
  </path>
</g>
</g>
<g id="kvg:StrokeNumbers_03083" style="font-size:8;fill:#BC002D;;transform:translateX(80px);">
	<text transform="matrix(1 0 0 1 21.88 57.13)">3</text>
	<text transform="matrix(1 0 0 1 42.25 32.63)">4</text>
	<text transform="matrix(1 0 0 1 27.13 40.63)">5</text>
</g>
</svg>
