<?xml version="1.0" encoding="UTF-8"?>
<!--
Original SVG:
Copyright (C) 2009–2011 Ulrich Apel (KanjiVG)
Licensed under CC BY-SA 3.0
http://kanjivg.tagaini.net
-->

<!--
Animations & interactive behavior:
Copyright (C) 2025 Naufal Aditya Yahya
Licensed under CC BY-SA 3.0
https://naufaladityayahya.me or https://github.com/soudayonee
-->

<!DOCTYPE svg PUBLIC "-//W3C//DTD SVG 1.0//EN" "http://www.w3.org/TR/2001/REC-SVG-20010904/DTD/svg10.dtd" [
<!ATTLIST g
xmlns:kvg CDATA #FIXED "http://kanjivg.tagaini.net"
kvg:element CDATA #IMPLIED
kvg:variant CDATA #IMPLIED
kvg:partial CDATA #IMPLIED
kvg:original CDATA #IMPLIED
kvg:part CDATA #IMPLIED
kvg:number CDATA #IMPLIED
kvg:tradForm CDATA #IMPLIED
kvg:radicalForm CDATA #IMPLIED
kvg:position CDATA #IMPLIED
kvg:radical CDATA #IMPLIED
kvg:phon CDATA #IMPLIED >
<!ATTLIST path
xmlns:kvg CDATA #FIXED "http://kanjivg.tagaini.net"
kvg:type CDATA #IMPLIED >
]>
<svg xmlns="http://www.w3.org/2000/svg" width="109" height="109" viewBox="0 0 109 109">
<g id="kvg:StrokePaths_0306c" style="fill:none;stroke:#000000;stroke-width:3;stroke-linecap:round;stroke-linejoin:round;">
<g id="kvg:0306c" kvg:element="ぬ">
	<path id="kvg:0306c-s1" d="M25.38,28.5c2,1.38,2.97,3.23,3.38,5.88c1.87,12.18,4.12,23.92,8.54,34.67c1.79,4.36,3.96,8.33,6.84,12.46" stroke="black" fill="transparent" stroke-width="3" stroke-dasharray="1000" stroke-dashoffset="1000">
    <animate attributeName="stroke-dashoffset" from="1000" to="0" dur="10s" begin="0s" fill="freeze" />
  </path>
	<path id="kvg:0306c-s2" d="M57.12,19.25c0.88,2.12,1.06,3.79,0.62,5.88c-3.12,15-13.14,39.81-18.12,48.62c-11.87,21-20.62,1.25-20.62-4.5c0-22.63,43.75-44.25,62.36-29.59c7.66,6.03,9.8,14.58,9.14,23.34c-2,26.75-32.88,28.38-32.88,16.88c0-9.38,17.38-7.12,27.12-1.12c3.1,1.91,7.25,5.25,9.5,7.5" stroke="black" fill="transparent" stroke-width="3" stroke-dasharray="1000" stroke-dashoffset="1000">
    <animate attributeName="stroke-dashoffset" from="1000" to="0" dur="10s" begin=".6s" fill="freeze" />
  </path>
</g>
</g>
<g id="kvg:StrokeNumbers_0306c" style="font-size:8;fill:#BC002D;">
	<text transform="matrix(1 0 0 1 17.63 27.88)">1</text>
	<text transform="matrix(1 0 0 1 47.25 17.25)">2</text>
</g>
</svg>
