<?xml version="1.0" encoding="UTF-8"?>
<!--
Original SVG:
Copyright (C) 2009–2011 Ulrich Apel (KanjiVG)
Licensed under CC BY-SA 3.0
http://kanjivg.tagaini.net
-->

<!--
Animations & interactive behavior:
Copyright (C) 2025 Naufal Aditya Yahya
Licensed under CC BY-SA 3.0
https://naufaladityayahya.me or https://github.com/soudayonee
-->

<!DOCTYPE svg PUBLIC "-//W3C//DTD SVG 1.0//EN" "http://www.w3.org/TR/2001/REC-SVG-20010904/DTD/svg10.dtd" [
<!ATTLIST g
xmlns:kvg CDATA #FIXED "http://kanjivg.tagaini.net"
kvg:element CDATA #IMPLIED
kvg:variant CDATA #IMPLIED
kvg:partial CDATA #IMPLIED
kvg:original CDATA #IMPLIED
kvg:part CDATA #IMPLIED
kvg:number CDATA #IMPLIED
kvg:tradForm CDATA #IMPLIED
kvg:radicalForm CDATA #IMPLIED
kvg:position CDATA #IMPLIED
kvg:radical CDATA #IMPLIED
kvg:phon CDATA #IMPLIED >
<!ATTLIST path
xmlns:kvg CDATA #FIXED "http://kanjivg.tagaini.net"
kvg:type CDATA #IMPLIED >
]>
<svg xmlns="http://www.w3.org/2000/svg" width="109" height="109" viewBox="0 0 169 169">
<g id="kvg:StrokePaths_0306b" style="fill:none;stroke:#000000;stroke-width:3;stroke-linecap:round;stroke-linejoin:round;">
<g id="kvg:0306b" kvg:element="に">
	<path id="kvg:0306b-s1" d="M24.53,22.75c1.25,1.5,1.62,3.75,1.12,6.38c-3,15.88-9,32.5-7.38,47.62c2.02,18.84,4.5,5.75,8.5-3.5" stroke="black" fill="transparent" stroke-width="3" stroke-dasharray="1000" stroke-dashoffset="1000">
    <animate attributeName="stroke-dashoffset" from="1000" to="0" dur="10s" begin="0s" fill="freeze" />
  </path>
	<path id="kvg:0306b-s2" d="M53.2,30.64c0.96,0.79,2.44,1.58,5.1,1.35c6.98-0.61,15.01-3.3,22.04-3.36c13.19-0.11,1.5,3.75-8.39,7.35" stroke="black" fill="transparent" stroke-width="3" stroke-dasharray="1000" stroke-dashoffset="1000">
    <animate attributeName="stroke-dashoffset" from="1000" to="0" dur="10s" begin=".8s" fill="freeze" />
  </path>
	<path id="kvg:0306b-s3" d="M52.53,68c1.76,12.92,11.92,16.01,24.23,14.93c5.08-0.45,8.9-0.8,14.27-2.06" stroke="black" fill="transparent" stroke-width="3" stroke-dasharray="1000" stroke-dashoffset="1000">
    <animate attributeName="stroke-dashoffset" from="1000" to="0" dur="10s" begin="1.3s" fill="freeze" />
  </path>
</g>
</g>
<g id="kvg:StrokeNumbers_0306b" style="font-size:8;fill:#BC002D;">
	<text transform="matrix(1 0 0 1 16.79 22.13)">1</text>
	<text transform="matrix(1 0 0 1 46.91 29)">2</text>
	<text transform="matrix(1 0 0 1 46.41 66)">3</text>
</g>
<g id="kvg:StrokePaths_03087" style="fill:none;stroke:#000000;stroke-width:3;stroke-linecap:round;stroke-linejoin:round;transform:translateX(80px);">
<g id="kvg:03087" kvg:element="ょ">
	<path id="kvg:03087-s1" d="M57.8,50.06c5.98-1.02,10.95-2.09,14.74-3.25c1.99-0.61,3.8-0.91,4.98-0.91" stroke="black" fill="transparent" stroke-width="3" stroke-dasharray="1000" stroke-dashoffset="1000">
    <animate attributeName="stroke-dashoffset" from="1000" to="0" dur="10s" begin="1.8s" fill="freeze" />
  </path>
	<path id="kvg:03087-s2" d="M54.91,33c1.79,1.69,2.38,3.28,2.29,5.16c-0.6,13.49-0.1,27.68,1.11,42.47c1.5,18.31-27.81,16.56-27.81,9.12c0-9.53,20.92-6.35,28.68-3.27c6.46,2.56,9.18,3.87,14.76,8.23" stroke="black" fill="transparent" stroke-width="3" stroke-dasharray="1000" stroke-dashoffset="1000">
    <animate attributeName="stroke-dashoffset" from="1000" to="0" dur="10s" begin="2.1s" fill="freeze" />
  </path>
</g>
</g>
<g id="kvg:StrokeNumbers_03087" style="font-size:8;fill:#BC002D;transform:translateX(80px);">
	<text transform="matrix(1 0 0 1 60.63 45.25)">4</text>
	<text transform="matrix(1 0 0 1 46.25 32.75)">5</text>
</g>
</svg>
