<?xml version="1.0" encoding="UTF-8"?>
<!--
Original SVG:
Copyright (C) 2009–2011 Ulrich Apel (KanjiVG)
Licensed under CC BY-SA 3.0
http://kanjivg.tagaini.net
-->

<!--
Animations & interactive behavior:
Copyright (C) 2025 Naufal Aditya Yahya
Licensed under CC BY-SA 3.0
https://naufaladityayahya.me or https://github.com/soudayonee
-->

<!DOCTYPE svg PUBLIC "-//W3C//DTD SVG 1.0//EN" "http://www.w3.org/TR/2001/REC-SVG-20010904/DTD/svg10.dtd" [
<!ATTLIST g
xmlns:kvg CDATA #FIXED "http://kanjivg.tagaini.net"
kvg:element CDATA #IMPLIED
kvg:variant CDATA #IMPLIED
kvg:partial CDATA #IMPLIED
kvg:original CDATA #IMPLIED
kvg:part CDATA #IMPLIED
kvg:number CDATA #IMPLIED
kvg:tradForm CDATA #IMPLIED
kvg:radicalForm CDATA #IMPLIED
kvg:position CDATA #IMPLIED
kvg:radical CDATA #IMPLIED
kvg:phon CDATA #IMPLIED >
<!ATTLIST path
xmlns:kvg CDATA #FIXED "http://kanjivg.tagaini.net"
kvg:type CDATA #IMPLIED >
]>
<svg xmlns="http://www.w3.org/2000/svg" width="109" height="109" viewBox="0 0 169 169">
<g id="kvg:StrokePaths_03074" style="fill:none;stroke:#000000;stroke-width:3;stroke-linecap:round;stroke-linejoin:round;">
<g id="kvg:03074" kvg:element="ぴ">
	<path id="kvg:03074-s1" d="M20,25.12c1.25,0.88,3.75,2.25,6.5,1.38c2.75-0.87,7.31-2.38,11.38-4.5c6-3.12,8.42-1.01,4.25,4c-27.13,32.62-23.76,58.5-1.52,62.88c18.07,3.56,37.63-16.38,35.63-56.51c-0.72-14.5-0.17-14.78,4.12-1.75c3.76,11.38,10.26,20.76,16.14,26.5" stroke="black" fill="transparent" stroke-width="3" stroke-dasharray="1000" stroke-dashoffset="1000">
    <animate attributeName="stroke-dashoffset" from="1000" to="0" dur="10s" begin="0s" fill="freeze" />
  </path>
	<path id="kvg:03074-s2" d="M93.87,22.12c-9.62,0-9.25-14.25,0-14.25c9.75,0.01,9.5,14.25,0,14.25" stroke="black" fill="transparent" stroke-width="3" stroke-dasharray="1000" stroke-dashoffset="1000">
    <animate attributeName="stroke-dashoffset" from="1000" to="0" dur="10s" begin="2.4s" fill="freeze" />
  </path>
</g>
</g>
<g id="kvg:StrokeNumbers_03074" style="font-size:8;fill:#BC002D;">
	<text transform="matrix(1 0 0 1 16.62 20.88)">1</text>
	<text transform="matrix(1 0 0 1 90 32)">2</text>
</g>
<g id="kvg:StrokePaths_03087" style="fill:none;stroke:#000000;stroke-width:3;stroke-linecap:round;stroke-linejoin:round;transform:translateX(80px);">
<g id="kvg:03087" kvg:element="ょ">
	<path id="kvg:03087-s1" d="M57.8,50.06c5.98-1.02,10.95-2.09,14.74-3.25c1.99-0.61,3.8-0.91,4.98-0.91" stroke="black" fill="transparent" stroke-width="3" stroke-dasharray="1000" stroke-dashoffset="1000">
    <animate attributeName="stroke-dashoffset" from="1000" to="0" dur="10s" begin="2.8s" fill="freeze" />
  </path>
	<path id="kvg:03087-s2" d="M54.91,33c1.79,1.69,2.38,3.28,2.29,5.16c-0.6,13.49-0.1,27.68,1.11,42.47c1.5,18.31-27.81,16.56-27.81,9.12c0-9.53,20.92-6.35,28.68-3.27c6.46,2.56,9.18,3.87,14.76,8.23" stroke="black" fill="transparent" stroke-width="3" stroke-dasharray="1000" stroke-dashoffset="1000">
    <animate attributeName="stroke-dashoffset" from="1000" to="0" dur="10s" begin="3.1s" fill="freeze" />
  </path>	
</g>
</g>
<g id="kvg:StrokeNumbers_03087" style="font-size:8;fill:#BC002D;transform:translateX(80px);">
	<text transform="matrix(1 0 0 1 60.63 45.25)">3</text>
	<text transform="matrix(1 0 0 1 46.25 32.75)">4</text>
</g>
</svg>
