<?xml version="1.0" encoding="UTF-8"?>
<!--
Original SVG:
Copyright (C) 2009–2011 Ulrich Apel (KanjiVG)
Licensed under CC BY-SA 3.0
http://kanjivg.tagaini.net
-->

<!--
Animations & interactive behavior:
Copyright (C) 2025 Naufal Aditya Yahya
Licensed under CC BY-SA 3.0
https://naufaladityayahya.me or https://github.com/soudayonee
-->

<!DOCTYPE svg PUBLIC "-//W3C//DTD SVG 1.0//EN" "http://www.w3.org/TR/2001/REC-SVG-20010904/DTD/svg10.dtd" [
<!ATTLIST g
xmlns:kvg CDATA #FIXED "http://kanjivg.tagaini.net"
kvg:element CDATA #IMPLIED
kvg:variant CDATA #IMPLIED
kvg:partial CDATA #IMPLIED
kvg:original CDATA #IMPLIED
kvg:part CDATA #IMPLIED
kvg:number CDATA #IMPLIED
kvg:tradForm CDATA #IMPLIED
kvg:radicalForm CDATA #IMPLIED
kvg:position CDATA #IMPLIED
kvg:radical CDATA #IMPLIED
kvg:phon CDATA #IMPLIED >
<!ATTLIST path
xmlns:kvg CDATA #FIXED "http://kanjivg.tagaini.net"
kvg:type CDATA #IMPLIED >
]>
<svg xmlns="http://www.w3.org/2000/svg" width="109" height="109" viewBox="0 0 169 169">
<g id="kvg:StrokePaths_0308a" style="fill:none;stroke:#000000;stroke-width:3;stroke-linecap:round;stroke-linejoin:round;">
<g id="kvg:0308a" kvg:element="り">
	<path id="kvg:0308a-s1" d="M38.75,25.25c1.25,1.5,2.24,4.03,1.62,6.62c-2.88,12.13-6.29,29.65-4.25,42.38c2,12.5,1.75-0.75,5.62-6.25" stroke="black" fill="transparent" stroke-width="3" stroke-dasharray="1000" stroke-dashoffset="1000">
    <animate attributeName="stroke-dashoffset" from="1000" to="0" dur="10s" begin="0s" fill="freeze" />
  </path>
	<path id="kvg:0308a-s2" d="M69.37,18.75c2.25,2.12,2.88,4.12,2.88,6.5c0,2.38,0,26.38,0,35.75c0,16.5-5,25.75-12.62,33.12" stroke="black" fill="transparent" stroke-width="3" stroke-dasharray="1000" stroke-dashoffset="1000">
    <animate attributeName="stroke-dashoffset" from="1000" to="0" dur="10s" begin=".7s" fill="freeze" />
  </path>
</g>
</g>
<g id="kvg:StrokeNumbers_0308a" style="font-size:8;fill:#BC002D;">
	<text transform="matrix(1 0 0 1 30.37 25)">1</text>
	<text transform="matrix(1 0 0 1 61.62 17)">2</text>
</g>
<g id="kvg:StrokePaths_03083" style="fill:none;stroke:#000000;stroke-width:3;stroke-linecap:round;stroke-linejoin:round;transform:translateX(80px);">
<g id="kvg:03083" kvg:element="ゃ">
	<path id="kvg:03083-s1" d="M26,61.07c1.49,1.29,4.16,1.98,6.84,0.69c14.68-7.03,28.36-15.36,40.32-15.26c7.16,0.11,12.7,3.28,12.63,9.75c0,6.61-8.63,13.15-19.43,14.14" stroke="black" fill="transparent" stroke-width="3" stroke-dasharray="1000" stroke-dashoffset="1000">
    <animate attributeName="stroke-dashoffset" from="1000" to="0" dur="10s" begin="1.5s" fill="freeze" />
  </path>
	<path id="kvg:03083-s2" d="M49.1,34.5c4.07,0.69,8.25,3.21,9.12,5.25c1.69,3.97-0.79,1.88-2.28,2.08" stroke="black" fill="transparent" stroke-width="3" stroke-dasharray="1000" stroke-dashoffset="1000">
    <animate attributeName="stroke-dashoffset" from="1000" to="0" dur="10s" begin="2.5s" fill="freeze" />
  </path>
	<path id="kvg:03083-s3" d="M35.77,40.99c1.88,1.49,2.35,2.77,2.82,4.67c2.08,8.33,8.82,32.37,11.7,41.39c0.51,1.62,1.49,4.96,2.28,7.44" stroke="black" fill="transparent" stroke-width="3" stroke-dasharray="1000" stroke-dashoffset="1000">
    <animate attributeName="stroke-dashoffset" from="1000" to="0" dur="10s" begin="2.7s" fill="freeze" />
  </path>
</g>
</g>
<g id="kvg:StrokeNumbers_03083" style="font-size:8;fill:#BC002D;;transform:translateX(80px);">
	<text transform="matrix(1 0 0 1 21.88 57.13)">3</text>
	<text transform="matrix(1 0 0 1 42.25 32.63)">4</text>
	<text transform="matrix(1 0 0 1 27.13 40.63)">5</text>
</g>
</svg>
