<?xml version="1.0" encoding="UTF-8"?>
<!--
Original SVG:
Copyright (C) 2009–2011 Ulrich Apel (KanjiVG)
Licensed under CC BY-SA 3.0
http://kanjivg.tagaini.net
-->

<!--
Animations & interactive behavior:
Copyright (C) 2025 Naufal Aditya Yahya
Licensed under CC BY-SA 3.0
https://naufaladityayahya.me or https://github.com/soudayonee
-->

<!DOCTYPE svg PUBLIC "-//W3C//DTD SVG 1.0//EN" "http://www.w3.org/TR/2001/REC-SVG-20010904/DTD/svg10.dtd" [
<!ATTLIST g
xmlns:kvg CDATA #FIXED "http://kanjivg.tagaini.net"
kvg:element CDATA #IMPLIED
kvg:variant CDATA #IMPLIED
kvg:partial CDATA #IMPLIED
kvg:original CDATA #IMPLIED
kvg:part CDATA #IMPLIED
kvg:number CDATA #IMPLIED
kvg:tradForm CDATA #IMPLIED
kvg:radicalForm CDATA #IMPLIED
kvg:position CDATA #IMPLIED
kvg:radical CDATA #IMPLIED
kvg:phon CDATA #IMPLIED >
<!ATTLIST path
xmlns:kvg CDATA #FIXED "http://kanjivg.tagaini.net"
kvg:type CDATA #IMPLIED >
]>
<svg xmlns="http://www.w3.org/2000/svg" width="109" height="109" viewBox="0 0 169 169">
<g id="kvg:StrokePaths_0308a" style="fill:none;stroke:#000000;stroke-width:3;stroke-linecap:round;stroke-linejoin:round;">
<g id="kvg:0308a" kvg:element="り">
	<path id="kvg:0308a-s1" d="M38.75,25.25c1.25,1.5,2.24,4.03,1.62,6.62c-2.88,12.13-6.29,29.65-4.25,42.38c2,12.5,1.75-0.75,5.62-6.25" stroke="black" fill="transparent" stroke-width="3" stroke-dasharray="1000" stroke-dashoffset="1000">
    <animate attributeName="stroke-dashoffset" from="1000" to="0" dur="10s" begin="0s" fill="freeze" />
  </path>
	<path id="kvg:0308a-s2" d="M69.37,18.75c2.25,2.12,2.88,4.12,2.88,6.5c0,2.38,0,26.38,0,35.75c0,16.5-5,25.75-12.62,33.12" stroke="black" fill="transparent" stroke-width="3" stroke-dasharray="1000" stroke-dashoffset="1000">
    <animate attributeName="stroke-dashoffset" from="1000" to="0" dur="10s" begin=".7s" fill="freeze" />
  </path>
</g>
</g>
<g id="kvg:StrokeNumbers_0308a" style="font-size:8;fill:#BC002D;">
	<text transform="matrix(1 0 0 1 30.37 25)">1</text>
	<text transform="matrix(1 0 0 1 61.62 17)">2</text>
</g>
<g id="kvg:StrokePaths_03085" style="fill:none;stroke:#000000;stroke-width:3;stroke-linecap:round;stroke-linejoin:round;transform:translateX(80px);">
<g id="kvg:03085" kvg:element="ゅ">
<path id="kvg:03085-s1" d="M27.74,40.79c1.1,1.2,1.61,3.3,1.2,5c-2.3,9.4-3.2,17.79-1.7,27.99c2.22,15.08,0.9,3.1,2.6-1.2c7.19-18.19,21.79-27.59,35.49-27.59c13.5,0,17.49,9.1,17.49,16.2c0,21.89-24.69,23.69-34.39,13.4" stroke="black" fill="transparent" stroke-width="3" stroke-dasharray="1000" stroke-dashoffset="1000">
    <animate attributeName="stroke-dashoffset" from="1000" to="0" dur="10s" begin="1.5s" fill="freeze" />
  </path>
<path id="kvg:03085-s2" d="M57.63,33.89c2.1,1.4,2.53,2.5,2.8,5.7c0.7,8.4,1.12,14.97,1.3,23.49c0.4,19.19-5,25.59-9.9,31.39" stroke="black" fill="transparent" stroke-width="3" stroke-dasharray="1000" stroke-dashoffset="1000">
    <animate attributeName="stroke-dashoffset" from="1000" to="0" dur="10s" begin="3.2s" fill="freeze" />
  </path>
</g>
</g>
<g id="kvg:StrokeNumbers_03085" style="font-size:8;fill:#BC002D;transform:translateX(80px);">
<text transform="matrix(1 0 0 1 19.42 39.63)">3</text>
<text transform="matrix(1 0 0 1 48.8 32.5)">4</text>
</g>
</svg>
