<?xml version="1.0" encoding="UTF-8"?>
<!--
Original SVG:
Copyright (C) 2009–2011 Ulrich Apel (KanjiVG)
Licensed under CC BY-SA 3.0
http://kanjivg.tagaini.net
-->

<!--
Animations & interactive behavior:
Copyright (C) 2025 Naufal Aditya Yahya
Licensed under CC BY-SA 3.0
https://naufaladityayahya.me or https://github.com/soudayonee
-->

<!DOCTYPE svg PUBLIC "-//W3C//DTD SVG 1.0//EN" "http://www.w3.org/TR/2001/REC-SVG-20010904/DTD/svg10.dtd" [
<!ATTLIST g
xmlns:kvg CDATA #FIXED "http://kanjivg.tagaini.net"
kvg:element CDATA #IMPLIED
kvg:variant CDATA #IMPLIED
kvg:partial CDATA #IMPLIED
kvg:original CDATA #IMPLIED
kvg:part CDATA #IMPLIED
kvg:number CDATA #IMPLIED
kvg:tradForm CDATA #IMPLIED
kvg:radicalForm CDATA #IMPLIED
kvg:position CDATA #IMPLIED
kvg:radical CDATA #IMPLIED
kvg:phon CDATA #IMPLIED >
<!ATTLIST path
xmlns:kvg CDATA #FIXED "http://kanjivg.tagaini.net"
kvg:type CDATA #IMPLIED >
]>
<svg xmlns="http://www.w3.org/2000/svg" width="109" height="109" viewBox="0 0 109 109">
<g id="kvg:StrokePaths_03088" style="fill:none;stroke:#000000;stroke-width:3;stroke-linecap:round;stroke-linejoin:round;">
<g id="kvg:03088" kvg:element="よ">
	<path id="kvg:03088-s1" d="M58.24,35.38c7.5-1.28,13.74-2.63,18.5-4.1c2.5-0.77,4.77-1.15,6.25-1.15" stroke="black" fill="transparent" stroke-width="3" stroke-dasharray="1000" stroke-dashoffset="1000">
    <animate attributeName="stroke-dashoffset" from="1000" to="0" dur="10s" begin="0s" fill="freeze" />
  </path>
	<path id="kvg:03088-s2" d="M54.62,13.88c2.25,2.12,2.98,4.13,2.88,6.5c-0.75,17-0.12,34.88,1.39,53.5c1.88,23.07-34.89,20.88-34.89,11.5c0-12,26.25-8,35.98-4.12c8.1,3.23,11.52,4.88,18.52,10.38" stroke="black" fill="transparent" stroke-width="3" stroke-dasharray="1000" stroke-dashoffset="1000">
    <animate attributeName="stroke-dashoffset" from="1000" to="0" dur="10s" begin=".3s" fill="freeze" />
  </path>
</g>
</g>
<g id="kvg:StrokeNumbers_03088" style="font-size:8;fill:#BC002D">
	<text transform="matrix(1 0 0 1 61.62 28.88)">1</text>
	<text transform="matrix(1 0 0 1 45.62 14.63)">2</text>
</g>
</svg>
