<?xml version="1.0" encoding="UTF-8"?>
<!--
Original SVG:
Copyright (C) 2009–2011 Ulrich Apel (KanjiVG)
Licensed under CC BY-SA 3.0
http://kanjivg.tagaini.net
-->
<!DOCTYPE svg PUBLIC "-//W3C//DTD SVG 1.0//EN" "http://www.w3.org/TR/2001/REC-SVG-20010904/DTD/svg10.dtd" [ <!ATTLIST g
	xmlns:kvg CDATA #FIXED "http://kanjivg.tagaini.net" kvg:element CDATA #IMPLIED kvg:variant CDATA #IMPLIED
	kvg:partial CDATA #IMPLIED kvg:original CDATA #IMPLIED kvg:part CDATA #IMPLIED kvg:number CDATA #IMPLIED
	kvg:tradForm CDATA #IMPLIED kvg:radicalForm CDATA #IMPLIED kvg:position CDATA #IMPLIED kvg:radical CDATA #IMPLIED
	kvg:phon CDATA #IMPLIED>
<!ATTLIST path xmlns:kvg CDATA #FIXED "http://kanjivg.tagaini.net" kvg:type CDATA #IMPLIED>
	]>
	<svg xmlns="http://www.w3.org/2000/svg" width="109" height="109" viewBox="0 0 169 169">
		<g id="kvg:StrokePaths_030c1"
			style="fill:none;stroke:#000000;stroke-width:3;stroke-linecap:round;stroke-linejoin:round;">
			<g id="kvg:030c1" kvg:element="チ">
				<path id="kvg:030c1-s1"
					d="M69.76,15.25c-0.38,2.62-2.01,4.37-3.88,5.38c-7.88,4.25-18.62,9.75-35.5,13.25" />
				<path id="kvg:030c1-s2"
					d="M18.5,51.5c2.88,0.88,4.39,1.65,7.88,1.25c22-2.5,36.38-4.25,56.12-4.88c4.88-0.15,7.88,0.51,10.88,1.51" />
				<path id="kvg:030c1-s3"
					d="M54.88,30.75c0.88,0.75,1.75,2.49,1.75,4.75c0,6.03,0.03,11.25,0.03,18.27c0,14.98-5.03,29.48-16.53,39.23" />
			</g>
		</g>
		<g id="kvg:StrokeNumbers_030c1" style="font-size:8;fill:#BC002D;">
			<text transform="matrix(1 0 0 1 61.76 12.63)">1</text>
			<text transform="matrix(1 0 0 1 13.63 46.75)">2</text>
			<text transform="matrix(1 0 0 1 47.76 37.63)">3</text>
		</g>
		<g id="kvg:StrokePaths_030e3"
			style="fill:none;stroke:#000000;stroke-width:3;stroke-linecap:round;stroke-linejoin:round;transform:translateX(80px)">
			<g id="kvg:030e3" kvg:element="ャ">
				<path id="kvg:030e3-s1"
					d="M25,56.25c1.67,1.28,4.84,1.85,7.96,1.08c14.85-3.64,26.27-6.16,38.45-9.34c17.31-4.52,1.18,11.21-2.16,15.73" />
				<path id="kvg:030e3-s2"
					d="M41.1,35.5c1.3,1.1,2,2.1,2.5,4.1c0.5,2,9.4,41.62,9.9,43.72c0.5,2.1,1.7,7.2,2.4,9.8" />
			</g>
		</g>
		<g id="kvg:StrokeNumbers_030e3" style="font-size:8;fill:#BC002D;transform:translateX(80px)">
			<text transform="matrix(1 0 0 1 19.99 51.63)">4</text>
			<text transform="matrix(1 0 0 1 32.99 35.88)">5</text>
		</g>
	</svg>