<?xml version="1.0" encoding="UTF-8"?>
<!--
Original SVG:
Copyright (C) 2009–2011 Ulrich Apel (KanjiVG)
Licensed under CC BY-SA 3.0
http://kanjivg.tagaini.net
-->
<!DOCTYPE svg PUBLIC "-//W3C//DTD SVG 1.0//EN" "http://www.w3.org/TR/2001/REC-SVG-20010904/DTD/svg10.dtd" [ <!ATTLIST g
	xmlns:kvg CDATA #FIXED "http://kanjivg.tagaini.net" kvg:element CDATA #IMPLIED kvg:variant CDATA #IMPLIED
	kvg:partial CDATA #IMPLIED kvg:original CDATA #IMPLIED kvg:part CDATA #IMPLIED kvg:number CDATA #IMPLIED
	kvg:tradForm CDATA #IMPLIED kvg:radicalForm CDATA #IMPLIED kvg:position CDATA #IMPLIED kvg:radical CDATA #IMPLIED
	kvg:phon CDATA #IMPLIED>
<!ATTLIST path xmlns:kvg CDATA #FIXED "http://kanjivg.tagaini.net" kvg:type CDATA #IMPLIED>
	]>
	<svg xmlns="http://www.w3.org/2000/svg" width="109" height="109" viewBox="0 0 169 169">
		<g id="kvg:StrokePaths_030b8"
			style="fill:none;stroke:#000000;stroke-width:3;stroke-linecap:round;stroke-linejoin:round;">
			<g id="kvg:030b8" kvg:element="ジ">
				<path id="kvg:030b8-s1" d="M39.87,19.75c5.14,1.57,9.79,6.01,11.5,8.62" />
				<path id="kvg:030b8-s2" d="M26,42.62c3.25,0.88,10.25,5.5,12.25,8.13" />
				<path id="kvg:030b8-s3" d="M33,85c3.62,1.62,6.5,0.88,10.38-1.38c17.81-10.34,32.37-23.87,46.12-42.87" />
				<path id="kvg:030b8-s4" d="M78.5,18.98c2.85,1.78,6.21,5.47,8.03,8.65" />
				<path id="kvg:030b8-s5" d="M85.25,14.38c2.93,1.57,6.39,4.83,8.25,7.63" />
			</g>
		</g>
		<g id="kvg:StrokeNumbers_030b8" style="font-size:8;fill:#BC002D;">
			<text transform="matrix(1 0 0 1 34 19.13)">1</text>
			<text transform="matrix(1 0 0 1 23.38 38.63)">2</text>
			<text transform="matrix(1 0 0 1 27.38 78.63)">3</text>
			<text transform="matrix(1 0 0 1 71.13 17.13)">4</text>
			<text transform="matrix(1 0 0 1 77.25 12)">5</text>
		</g>
		<g id="kvg:StrokePaths_030e3"
			style="fill:none;stroke:#000000;stroke-width:3;stroke-linecap:round;stroke-linejoin:round;transform:translateX(80px)">
			<g id="kvg:030e3" kvg:element="ャ">
				<path id="kvg:030e3-s1"
					d="M25,56.25c1.67,1.28,4.84,1.85,7.96,1.08c14.85-3.64,26.27-6.16,38.45-9.34c17.31-4.52,1.18,11.21-2.16,15.73" />
				<path id="kvg:030e3-s2"
					d="M41.1,35.5c1.3,1.1,2,2.1,2.5,4.1c0.5,2,9.4,41.62,9.9,43.72c0.5,2.1,1.7,7.2,2.4,9.8" />
			</g>
		</g>
		<g id="kvg:StrokeNumbers_030e3" style="font-size:8;fill:#BC002D;transform:translateX(80px)">
			<text transform="matrix(1 0 0 1 19.99 51.63)">6</text>
			<text transform="matrix(1 0 0 1 32.99 35.88)">7</text>
		</g>
	</svg>