<?xml version="1.0" encoding="UTF-8"?>
<!--
Original SVG:
Copyright (C) 2009–2011 Ulrich Apel (KanjiVG)
Licensed under CC BY-SA 3.0
http://kanjivg.tagaini.net
-->
<!DOCTYPE svg PUBLIC "-//W3C//DTD SVG 1.0//EN" "http://www.w3.org/TR/2001/REC-SVG-20010904/DTD/svg10.dtd" [ <!ATTLIST g
	xmlns:kvg CDATA #FIXED "http://kanjivg.tagaini.net" kvg:element CDATA #IMPLIED kvg:variant CDATA #IMPLIED
	kvg:partial CDATA #IMPLIED kvg:original CDATA #IMPLIED kvg:part CDATA #IMPLIED kvg:number CDATA #IMPLIED
	kvg:tradForm CDATA #IMPLIED kvg:radicalForm CDATA #IMPLIED kvg:position CDATA #IMPLIED kvg:radical CDATA #IMPLIED
	kvg:phon CDATA #IMPLIED>
<!ATTLIST path xmlns:kvg CDATA #FIXED "http://kanjivg.tagaini.net" kvg:type CDATA #IMPLIED>
	]>
	<svg xmlns="http://www.w3.org/2000/svg" width="109" height="109" viewBox="0 0 169 169">
		<g id="kvg:StrokePaths_030ad"
			style="fill:none;stroke:#000000;stroke-width:3;stroke-linecap:round;stroke-linejoin:round;">
			<g id="kvg:030ad" kvg:element="キ">
				<path id="kvg:030ad-s1"
					d="M27,40.5c1.75,0.62,4.77,1.09,7.25,0.38c11.75-3.38,30.62-8.13,37.5-9.88c2.62-0.67,6.75-1.12,9-1" />
				<path id="kvg:030ad-s2"
					d="M19.5,65.8c2.28,0.84,6.24,1.18,9.46,0.17c17.79-5.59,32.67-9.09,49.17-12.99c3.43-0.81,8.81-1.52,11.74-1.35" />
				<path id="kvg:030ad-s3"
					d="M48.87,16.75c2.5,1.75,3.43,3.24,3.88,6.12c2.12,13.62,6.38,45.38,8.25,59.25c0.4,3,1,8.38,1.38,11.12" />
			</g>
		</g>
		<g id="kvg:StrokeNumbers_030ad" style="font-size:8;fill:#BC002D;">
			<text transform="matrix(1 0 0 1 19.75 37.13)">1</text>
			<text transform="matrix(1 0 0 1 17.13 61.13)">2</text>
			<text transform="matrix(1 0 0 1 41 16.88)">3</text>
		</g>
		<g id="kvg:StrokePaths_030e5"
			style="fill:none;stroke:#000000;stroke-width:3;stroke-linecap:round;stroke-linejoin:round;transform:translateX(80px);">
			<g id="kvg:030e5" kvg:element="ュ">
				<path id="kvg:030e5-s1"
					d="M34.8,52.84c1.91,1.21,4.13,1.67,7.44,1.21c10.65-1.51,13.99-1.68,21.71-2.97c5.43-0.9,6.26,0.13,5.23,5.12c-1.91,9.25-3.92,19.45-5.23,27.49" />
				<path id="kvg:030e5-s2"
					d="M24.5,86.21c2.21,1.21,3.84,1.73,7.34,1.21c18.54-2.79,28.95-3.12,43.52-3.12c3.02,0,5.93,0.4,8.95,0.9" />
			</g>
		</g>
		<g id="kvg:StrokeNumbers_030e5" style="font-size:8;fill:#BC002D;transform:translateX(80px);">
			<text transform="matrix(1 0 0 1 29.13 50.5)">4</text>
			<text transform="matrix(1 0 0 1 20.63 81.88)">5</text>
		</g>
	</svg>