<?xml version="1.0" encoding="UTF-8"?>
<!--
Original SVG:
Copyright (C) 2009–2011 Ulrich Apel (KanjiVG)
Licensed under CC BY-SA 3.0
http://kanjivg.tagaini.net
-->
<!DOCTYPE svg PUBLIC "-//W3C//DTD SVG 1.0//EN" "http://www.w3.org/TR/2001/REC-SVG-20010904/DTD/svg10.dtd" [ <!ATTLIST g
	xmlns:kvg CDATA #FIXED "http://kanjivg.tagaini.net" kvg:element CDATA #IMPLIED kvg:variant CDATA #IMPLIED
	kvg:partial CDATA #IMPLIED kvg:original CDATA #IMPLIED kvg:part CDATA #IMPLIED kvg:number CDATA #IMPLIED
	kvg:tradForm CDATA #IMPLIED kvg:radicalForm CDATA #IMPLIED kvg:position CDATA #IMPLIED kvg:radical CDATA #IMPLIED
	kvg:phon CDATA #IMPLIED>
<!ATTLIST path xmlns:kvg CDATA #FIXED "http://kanjivg.tagaini.net" kvg:type CDATA #IMPLIED>
	]>
	<svg xmlns="http://www.w3.org/2000/svg" width="109" height="109" viewBox="0 0 169 169">
		<g id="kvg:StrokePaths_030df"
			style="fill:none;stroke:#000000;stroke-width:3;stroke-linecap:round;stroke-linejoin:round;">
			<g id="kvg:030df" kvg:element="ミ">
				<path id="kvg:030df-s1" d="M41.87,20c10.4,2.57,20.5,6.3,25,10.38" />
				<path id="kvg:030df-s2" d="M42,46.88c10.72,2.69,21.11,6.6,25.75,10.88" />
				<path id="kvg:030df-s3" d="M36.5,75c15.71,4.49,30.95,11,37.75,18.12" />
			</g>
		</g>
		<g id="kvg:StrokeNumbers_030df" style="font-size:8;fill:#BC002D;">
			<text transform="matrix(1 0 0 1 34.63 19.25)">1</text>
			<text transform="matrix(1 0 0 1 34.38 46.13)">2</text>
			<text transform="matrix(1 0 0 1 31.88 71.5)">3</text>
		</g>
		<g id="kvg:StrokePaths_030e7"
			style="fill:none;stroke:#000000;stroke-width:3;stroke-linecap:round;stroke-linejoin:round;transform:translateX(80px)">
			<g id="kvg:030e7" kvg:element="ョ">
				<path id="kvg:030e7-s1"
					d="M33.5,50.62c1.9,1.21,4.09,1.6,7.39,1.21c11.19-1.32,21.35-2.46,29.07-3.44c4.79-0.61,5.49,0.4,5.2,5.16c-0.79,12.56-1.5,24.79-2.4,34.21" />
				<path id="kvg:030e7-s2"
					d="M33.6,69.04c1.9,1.21,4.09,1.6,7.39,1.21c8.39-0.99,18.23-1.85,24.86-2.47c2.21-0.2,4.21,0.04,6.21,0.44" />
				<path id="kvg:030e7-s3"
					d="M29,90.06c2.2,1.05,3.79,1.36,7.29,1.05c9.99-0.88,23.47-2.35,33.07-2.35c2.7,0,4.49,0,7.49,0.44" />
			</g>
		</g>
		<g id="kvg:StrokeNumbers_030e7" style="font-size:8;fill:#BC002D;transform:translateX(80px)">
			<text transform="matrix(1 0 0 1 27.63 50.5)">4</text>
			<text transform="matrix(1 0 0 1 26.5 69.25)">5</text>
			<text transform="matrix(1 0 0 1 24 86.5)">6</text>
		</g>
	</svg>