<?xml version="1.0" encoding="UTF-8"?>
<!--
Original SVG:
Copyright (C) 2009–2011 Ulrich Apel (KanjiVG)
Licensed under CC BY-SA 3.0
http://kanjivg.tagaini.net
-->
<!DOCTYPE svg PUBLIC "-//W3C//DTD SVG 1.0//EN" "http://www.w3.org/TR/2001/REC-SVG-20010904/DTD/svg10.dtd" [ <!ATTLIST g
	xmlns:kvg CDATA #FIXED "http://kanjivg.tagaini.net" kvg:element CDATA #IMPLIED kvg:variant CDATA #IMPLIED
	kvg:partial CDATA #IMPLIED kvg:original CDATA #IMPLIED kvg:part CDATA #IMPLIED kvg:number CDATA #IMPLIED
	kvg:tradForm CDATA #IMPLIED kvg:radicalForm CDATA #IMPLIED kvg:position CDATA #IMPLIED kvg:radical CDATA #IMPLIED
	kvg:phon CDATA #IMPLIED>
<!ATTLIST path xmlns:kvg CDATA #FIXED "http://kanjivg.tagaini.net" kvg:type CDATA #IMPLIED>
	]>
	<svg xmlns="http://www.w3.org/2000/svg" width="109" height="109" viewBox="0 0 169 169">
		<g id="kvg:StrokePaths_030cb"
			style="fill:none;stroke:#000000;stroke-width:3;stroke-linecap:round;stroke-linejoin:round;">
			<g id="kvg:030cb" kvg:element="ニ">
				<path id="kvg:030cb-s1"
					d="M32.63,34.69c2.5,1.19,4.33,1.6,7.45,1.35c11.55-0.91,18.3-2.41,27.04-3.18c2.64-0.23,6.27-0.16,8.39,0.08" />
				<path id="kvg:030cb-s2"
					d="M20,74.88c2.62,1,4.78,1.45,9.12,0.75c20.25-3.25,36.5-3.88,52.38-3.88c3.75,0,8,1,11.12,2.38" />
			</g>
		</g>
		<g id="kvg:StrokeNumbers_030cb" style="font-size:8;fill:#BC002D;">
			<text transform="matrix(1 0 0 1 26.01 33.13)">1</text>
			<text transform="matrix(1 0 0 1 15.76 68.5)">2</text>
		</g>
		<g id="kvg:StrokePaths_030e3"
			style="fill:none;stroke:#000000;stroke-width:3;stroke-linecap:round;stroke-linejoin:round;transform:translateX(80px)">
			<g id="kvg:030e3" kvg:element="ャ">
				<path id="kvg:030e3-s1"
					d="M25,56.25c1.67,1.28,4.84,1.85,7.96,1.08c14.85-3.64,26.27-6.16,38.45-9.34c17.31-4.52,1.18,11.21-2.16,15.73" />
				<path id="kvg:030e3-s2"
					d="M41.1,35.5c1.3,1.1,2,2.1,2.5,4.1c0.5,2,9.4,41.62,9.9,43.72c0.5,2.1,1.7,7.2,2.4,9.8" />
			</g>
		</g>
		<g id="kvg:StrokeNumbers_030e3" style="font-size:8;fill:#BC002D;transform:translateX(80px)">
			<text transform="matrix(1 0 0 1 19.99 51.63)">4</text>
			<text transform="matrix(1 0 0 1 32.99 35.88)">5</text>
		</g>
	</svg>