<?xml version="1.0" encoding="UTF-8"?>
<!--
Original SVG:
Copyright (C) 2009–2011 Ulrich Apel (KanjiVG)
Licensed under CC BY-SA 3.0
http://kanjivg.tagaini.net
-->
<!DOCTYPE svg PUBLIC "-//W3C//DTD SVG 1.0//EN" "http://www.w3.org/TR/2001/REC-SVG-20010904/DTD/svg10.dtd" [ <!ATTLIST g
	xmlns:kvg CDATA #FIXED "http://kanjivg.tagaini.net" kvg:element CDATA #IMPLIED kvg:variant CDATA #IMPLIED
	kvg:partial CDATA #IMPLIED kvg:original CDATA #IMPLIED kvg:part CDATA #IMPLIED kvg:number CDATA #IMPLIED
	kvg:tradForm CDATA #IMPLIED kvg:radicalForm CDATA #IMPLIED kvg:position CDATA #IMPLIED kvg:radical CDATA #IMPLIED
	kvg:phon CDATA #IMPLIED>
<!ATTLIST path xmlns:kvg CDATA #FIXED "http://kanjivg.tagaini.net" kvg:type CDATA #IMPLIED>
	]>
	<svg xmlns="http://www.w3.org/2000/svg" width="109" height="109" viewBox="0 0 169 169">
		<g id="kvg:StrokePaths_030d4"
			style="fill:none;stroke:#000000;stroke-width:3;stroke-linecap:round;stroke-linejoin:round;">
			<g id="kvg:030d4" kvg:element="ピ">
				<path id="kvg:030d4-s1"
					d="M35.38,44.5c1.75,1.38,4.51,2.19,6.88,1.88c10.24-1.38,17.24-2.88,24.24-4.26c3.01-0.59,7.12-1,9.38-0.88" />
				<path id="kvg:030d4-s2"
					d="M31,17.62c1.38,1.26,1.88,3.38,1.88,6.13c0,2.75-0.88,44-0.88,47.25c0,9.75,4,14.62,13.75,14.62c6,0,16.38,0.12,21.38,0c5-0.12,9.5-0.62,13.5-1.5" />
				<path id="kvg:030d4-s3" d="M83,32.88c-9.62,0-9.25-14.25,0-14.25c9.76-0.01,9.5,14.25,0,14.25" />
			</g>
		</g>
		<g id="kvg:StrokeNumbers_030d4" style="font-size:8;fill:#BC002D;">
			<text transform="matrix(1 0 0 1 36.88 41.88)">1</text>
			<text transform="matrix(1 0 0 1 23.88 15.13)">2</text>
			<text transform="matrix(1 0 0 1 80.01 40.25)">3</text>
		</g>
		<g id="kvg:StrokePaths_030e3"
			style="fill:none;stroke:#000000;stroke-width:3;stroke-linecap:round;stroke-linejoin:round;transform:translateX(80px)">
			<g id="kvg:030e3" kvg:element="ャ">
				<path id="kvg:030e3-s1"
					d="M25,56.25c1.67,1.28,4.84,1.85,7.96,1.08c14.85-3.64,26.27-6.16,38.45-9.34c17.31-4.52,1.18,11.21-2.16,15.73" />
				<path id="kvg:030e3-s2"
					d="M41.1,35.5c1.3,1.1,2,2.1,2.5,4.1c0.5,2,9.4,41.62,9.9,43.72c0.5,2.1,1.7,7.2,2.4,9.8" />
			</g>
		</g>
		<g id="kvg:StrokeNumbers_030e3" style="font-size:8;fill:#BC002D;transform:translateX(80px)">
			<text transform="matrix(1 0 0 1 19.99 51.63)">4</text>
			<text transform="matrix(1 0 0 1 32.99 35.88)">5</text>
		</g>
	</svg>