<?xml version="1.0" encoding="UTF-8"?>
<!--
Original SVG:
Copyright (C) 2009–2011 Ulrich Apel (KanjiVG)
Licensed under CC BY-SA 3.0
http://kanjivg.tagaini.net
-->
<!DOCTYPE svg PUBLIC "-//W3C//DTD SVG 1.0//EN" "http://www.w3.org/TR/2001/REC-SVG-20010904/DTD/svg10.dtd" [ <!ATTLIST g
	xmlns:kvg CDATA #FIXED "http://kanjivg.tagaini.net" kvg:element CDATA #IMPLIED kvg:variant CDATA #IMPLIED
	kvg:partial CDATA #IMPLIED kvg:original CDATA #IMPLIED kvg:part CDATA #IMPLIED kvg:number CDATA #IMPLIED
	kvg:tradForm CDATA #IMPLIED kvg:radicalForm CDATA #IMPLIED kvg:position CDATA #IMPLIED kvg:radical CDATA #IMPLIED
	kvg:phon CDATA #IMPLIED>
<!ATTLIST path xmlns:kvg CDATA #FIXED "http://kanjivg.tagaini.net" kvg:type CDATA #IMPLIED>
	]>
	<svg xmlns="http://www.w3.org/2000/svg" width="109" height="109" viewBox="0 0 169 169">
		<g id="kvg:StrokePaths_030ea"
			style="fill:none;stroke:#000000;stroke-width:3;stroke-linecap:round;stroke-linejoin:round;">
			<g id="kvg:030ea" kvg:element="リ">
				<path id="kvg:030ea-s1" d="M35,18.38c1.12,1.5,1.62,3,1.62,4.88c0,1.88,0,25,0,27c0,2,0,6.12,0,7.75" />
				<path id="kvg:030ea-s2"
					d="M71,15.38c1.5,1.25,2.38,3.12,2.38,5.38c0,2.26-0.12,28.88-0.12,32.88c0,19.62-9.5,32.25-21.75,40.38" />
			</g>
		</g>
		<g id="kvg:StrokeNumbers_030ea" style="font-size:8;fill:#BC002D;">
			<text transform="matrix(1 0 0 1 28.62 15.88)">1</text>
			<text transform="matrix(1 0 0 1 62 13.5)">2</text>
		</g>
		<g id="kvg:StrokePaths_030e7"
			style="fill:none;stroke:#000000;stroke-width:3;stroke-linecap:round;stroke-linejoin:round;transform:translateX(80px)">
			<g id="kvg:030e7" kvg:element="ョ">
				<path id="kvg:030e7-s1"
					d="M33.5,50.62c1.9,1.21,4.09,1.6,7.39,1.21c11.19-1.32,21.35-2.46,29.07-3.44c4.79-0.61,5.49,0.4,5.2,5.16c-0.79,12.56-1.5,24.79-2.4,34.21" />
				<path id="kvg:030e7-s2"
					d="M33.6,69.04c1.9,1.21,4.09,1.6,7.39,1.21c8.39-0.99,18.23-1.85,24.86-2.47c2.21-0.2,4.21,0.04,6.21,0.44" />
				<path id="kvg:030e7-s3"
					d="M29,90.06c2.2,1.05,3.79,1.36,7.29,1.05c9.99-0.88,23.47-2.35,33.07-2.35c2.7,0,4.49,0,7.49,0.44" />
			</g>
		</g>
		<g id="kvg:StrokeNumbers_030e7" style="font-size:8;fill:#BC002D;transform:translateX(80px)">
			<text transform="matrix(1 0 0 1 27.63 50.5)">3</text>
			<text transform="matrix(1 0 0 1 26.5 69.25)">4</text>
			<text transform="matrix(1 0 0 1 24 86.5)">5</text>
		</g>
	</svg>